<svg xmlns="http://www.w3.org/2000/svg" xml:space="preserve" version="1.1" viewBox="0 0 8.467 7.335"><g fill="#0d597f"><path d="M3.067 4.564v-.893l-.642.643a1.892 1.892 0 0 0 .196.12 1.3 1.3 0 0 0 .172.076.96.96 0 0 0 .274.053m3.287-.074a.172.172 0 0 0 .019.014.335.335 0 0 0 .051.026.46.46 0 0 0 .084.025.735.735 0 0 0 .246 0 .952.952 0 0 0 .15-.04 1.33 1.33 0 0 0 .174-.075c.062-.033.129-.073.2-.122l-.488-.478-1.615-1.62-.71.71-.956-.983-2.4 2.37c.071.05.137.09.2.123.061.032.12.057.174.076a.95.95 0 0 0 .15.04.73.73 0 0 0 .126.01.597.597 0 0 0 .12-.01.442.442 0 0 0 .084-.026.33.33 0 0 0 .07-.04l1.086-1.086.387-.371 1.075 1.074.374.386a.17.17 0 0 0 .02.013.334.334 0 0 0 .05.027.597.597 0 0 0 .204.037.954.954 0 0 0 .276-.051c.054-.02.113-.044.175-.077.062-.032.128-.072.199-.121l-.859-.842.16-.16.745.745.435.43M6.35.001 8.467 3.67 6.35 7.336H2.115L-.001 3.67 2.115 0z"/><path d="m5.058 3.484-.564-.563.04-.04.568.56z"/></g></svg>