<svg xmlns="http://www.w3.org/2000/svg" xml:space="preserve" version="1.1" viewBox="0 0 6.985 8.467"><g fill-rule="evenodd"><path d="M6.386 1.464 4.922 4.251 6.386 7.04l.6-.336V1.8Z" fill="#e25444"/><path d="M6.386 1.464 3.458 1.8l-1.49 2.45 1.49 2.452 2.928.336Z" fill="#7b1d13"/><path d="M.477 1.464 0 1.676v5.15l.477.213 2.98-2.788Z" fill="#58150d"/><path d="m.47 1.458 2.992.832v3.998L.47 7.04Z" fill="#e25444"/><path d="m3.463 2.729-1.27-.204 1.27-1.443L4.73 2.525z" fill="#58150d"/><path d="m4.73 2.525-1.268.207-1.269-.207V1.082m1.27 4.673-1.27.235 1.27 1.239L4.73 5.99z" fill="#58150d"/><path d="m3.458 0-1.27.67v1.853l1.274-.359zm.004 3.183-1.269.138v1.85l1.269.145zm0 3.12-1.269-.318v1.819l1.269.663Z" fill="#7b1d13"/><path d="m4.73 5.985-1.268.319v2.163l1.268-.663zM3.462 3.183l1.268.138v1.85l-1.268.145zM3.458 0l1.27.67v1.853l-1.27-.353z" fill="#e25444"/></g></svg>