<svg xmlns="http://www.w3.org/2000/svg" xml:space="preserve" version="1.1" viewBox="0 0 7.012 8.467"><path d="m1.176 6.705-.82.187V1.579l.82.188v4.938m1.023.313-1.023.291V1.17l1.023.29v5.56m1.313.321-1.313.48V.658l1.313.48V7.34m3.51-.62-3.51 1.756V.001l3.51 1.755v4.965" fill="#f68536"/><path d="m2.812.35.7-.35v8.476l-.7-.35V.351M1.657.928 2.2.657v7.162l-.542-.27V.927m-.913.457.431-.216v6.139l-.431-.216V1.385m-.389.194-.352.176v4.967l.352.176V1.579" fill="#9d5025" fill-rule="evenodd" clip-rule="evenodd"/></svg>