<svg xmlns="http://www.w3.org/2000/svg" xml:space="preserve" version="1.1" viewBox="0 0 8.467 5.063"><path d="M2.386 1.839c0 .104.011.188.031.25.023.062.05.13.09.203.014.023.02.045.02.065 0 .028-.017.056-.054.084l-.177.119a.135.135 0 0 1-.073.025c-.028 0-.057-.014-.085-.04a.871.871 0 0 1-.101-.132 2.18 2.18 0 0 1-.087-.166 1.04 1.04 0 0 1-.828.389c-.237 0-.426-.068-.564-.203a.723.723 0 0 1-.208-.54c0-.24.085-.434.256-.58.172-.147.4-.22.69-.22.096 0 .195.008.299.022.104.014.21.037.324.062V.971c0-.214-.045-.363-.133-.45-.09-.087-.242-.13-.459-.13-.098 0-.2.012-.304.037A2.244 2.244 0 0 0 .72.524a.808.808 0 0 1-.1.036.173.173 0 0 1-.045.01C.535.569.516.54.516.482V.344c0-.046.006-.08.02-.099a.21.21 0 0 1 .079-.06C.713.136.832.094.97.06c.138-.036.284-.053.439-.053.335 0 .58.076.738.228.155.152.233.383.233.692v.913Zm-1.143.428a.913.913 0 0 0 .29-.05.628.628 0 0 0 .267-.181.447.447 0 0 0 .096-.18c.017-.068.028-.15.028-.245v-.119a2.352 2.352 0 0 0-.524-.064c-.188 0-.326.036-.42.112-.092.076-.137.183-.137.324 0 .133.034.231.104.299.068.07.166.104.296.104zm2.261.304c-.05 0-.085-.008-.107-.028-.023-.017-.042-.056-.06-.11L2.678.256A.493.493 0 0 1 2.65.144c0-.045.022-.07.067-.07h.276c.054 0 .09.008.11.027.023.017.04.057.056.11l.474 1.864.439-1.864c.014-.056.03-.093.053-.11A.194.194 0 0 1 4.24.073h.225c.054 0 .09.009.113.028.022.017.042.057.053.11l.445 1.887L5.562.21A.241.241 0 0 1 5.619.1a.184.184 0 0 1 .11-.028h.262c.045 0 .07.023.07.07 0 .015-.003.029-.006.046a.4.4 0 0 1-.02.07l-.678 2.177c-.017.056-.037.093-.06.11a.18.18 0 0 1-.106.028h-.242c-.054 0-.09-.009-.113-.028-.023-.02-.042-.057-.054-.113L4.346.617 3.912 2.43c-.014.057-.03.093-.053.113-.023.02-.062.028-.113.028zm3.619.076c-.147 0-.293-.017-.434-.05a1.323 1.323 0 0 1-.324-.113c-.045-.026-.076-.054-.087-.08a.199.199 0 0 1-.017-.078v-.144c0-.059.022-.087.065-.087a.16.16 0 0 1 .05.009.671.671 0 0 1 .07.028 1.666 1.666 0 0 0 .646.132c.177 0 .315-.03.41-.093a.303.303 0 0 0 .147-.267.274.274 0 0 0-.076-.198c-.05-.053-.146-.1-.284-.146l-.409-.127c-.205-.064-.357-.16-.45-.287a.67.67 0 0 1-.065-.72.724.724 0 0 1 .203-.232.894.894 0 0 1 .293-.146A1.414 1.414 0 0 1 7.404.01c.065.009.124.02.183.031.056.014.11.028.16.045.051.017.09.034.119.051.04.022.068.045.084.07A.152.152 0 0 1 7.976.3v.133c0 .059-.023.09-.065.09A.293.293 0 0 1 7.804.49c-.16-.073-.34-.11-.54-.11-.161 0-.288.025-.375.079a.272.272 0 0 0-.133.25c0 .08.029.147.085.2.056.054.16.108.31.155l.4.127c.202.065.349.155.436.27.087.116.13.248.13.395 0 .12-.026.23-.074.326a.757.757 0 0 1-.205.248.908.908 0 0 1-.313.158c-.126.04-.259.059-.402.059z" fill="#252f3e"/><path d="M7.655 4.016c-.927.684-2.273 1.047-3.43 1.047-1.622 0-3.084-.6-4.188-1.597-.087-.078-.008-.185.096-.123a8.445 8.445 0 0 0 4.19 1.112 8.362 8.362 0 0 0 3.197-.653c.154-.07.287.101.135.214z" fill="#f90" fill-rule="evenodd" clip-rule="evenodd"/><path d="M8.04 3.576c-.118-.152-.782-.073-1.084-.036-.09.011-.104-.068-.022-.127.53-.372 1.4-.265 1.5-.14.102.126-.027.996-.523 1.413-.076.065-.15.03-.115-.054.112-.278.363-.906.245-1.056z" fill="#f90" fill-rule="evenodd" clip-rule="evenodd"/></svg>