<svg xmlns="http://www.w3.org/2000/svg" xmlns:xlink="http://www.w3.org/1999/xlink" version="1.1" viewBox="0 0 714.107 800"><defs><linearGradient id="a" x1=".18" x2=".778" y1=".801" y2=".288"><stop offset="0%" stop-color="#00437C"/><stop offset="100%" stop-color="#093266"/></linearGradient><linearGradient id="b" x1="0" y1=".5" y2=".5"><stop offset="0%" stop-color="#00437C"/><stop offset="100%" stop-color="#3984B5"/></linearGradient><linearGradient xlink:href="#a" id="f" x1="9.179" x2="37.824" y1="38.616" y2="14.032" gradientTransform="scale(.55098 1.81494)" gradientUnits="userSpaceOnUse"/><linearGradient xlink:href="#a" id="d" x1="9.179" x2="37.824" y1="38.616" y2="14.032" gradientTransform="scale(.55098 1.81494)" gradientUnits="userSpaceOnUse"/><linearGradient xlink:href="#b" id="j" x1=".364" x2="61.918" y1="31.319" y2="31.319" gradientTransform="scale(1.24281 .80463)" gradientUnits="userSpaceOnUse"/><linearGradient xlink:href="#b" id="h" x1=".364" x2="61.918" y1="31.319" y2="31.319" gradientTransform="scale(1.24281 .80463)" gradientUnits="userSpaceOnUse"/><path d="M7.244 76.155C2.72 73.543.304 70.957.304 65.835v-58.3c0-2.664.71-5.061 1.858-7.09l24.537 14.1V87.39Z" id="c"/><path d="M8.741 48.056.453 43.271V12.79l15.349 8.861L52.318.571V.436l24.635 14.156c-1.188 2.158-2.96 3.944-5.292 5.29L22.878 48.047a14.114 14.114 0 0 1-7.075 1.917 14.11 14.11 0 0 1-7.062-1.908" id="g"/></defs><g fill="none" fill-rule="evenodd"><path d="m444.04 349.3-86.981-50.209-86.98 50.216 86.98 50.709Z" fill="#00577b"/><path d="m357.059 499.993 86.98-50.233V349.307l-86.98 50.226z" fill="#1e384b"/><path d="m357.059 499.993-86.98-50.233V349.307l86.98 50.226z" fill="#15211f"/><path d="M564.3 281.094v238.541L357.06 639.29 149.795 519.635v-.357L10.545 599.3c7.298 12.883 17.713 23.127 29.245 29.79 91.907 53.053 183.796 106.123 275.708 159.176 26.975 15.58 56.005 15.653 82.826.17l276.379-159.573c25.8-14.892 39.404-38.53 39.404-68.587v-317.99c0-15.64-3.417-29.59-9.995-41.543L564.3 281.1Z" fill="#00437c" fill-rule="nonzero"/><g transform="matrix(5.67535 0 0 -5.67535 -1.725 601.831)"><mask fill="#fff" id="e"><use xlink:href="#c"/></mask><g fill="url(#d)" fill-rule="nonzero" mask="url(#e)"><path d="M7.244 76.155C2.72 73.543.304 70.957.304 65.835v-58.3c0-2.664.71-5.061 1.858-7.09l24.537 14.1V87.39Z" fill="url(#f)"/></g></g><g transform="matrix(5.67535 0 0 -5.67535 267.377 283.563)"><mask fill="#fff" id="i"><use xlink:href="#g"/></mask><g fill="url(#h)" fill-rule="nonzero" mask="url(#i)"><path d="M8.741 48.056.453 43.271V12.79l15.349 8.861L52.318.571V.436l24.635 14.156c-1.188 2.158-2.96 3.944-5.292 5.29L22.878 48.047a14.114 14.114 0 0 1-7.075 1.917 14.11 14.11 0 0 1-7.062-1.908" fill="url(#j)"/></g></g></g></svg>