<svg xmlns="http://www.w3.org/2000/svg" xml:space="preserve" version="1.1" viewBox="0 0 22671 32000"><g fill-rule="nonzero" stroke-linejoin="round" stroke-miterlimit="2" clip-rule="evenodd"><path d="m22670 6288-2066 23137-9284 2573-9258-2570L0 6288Z" fill="#264de4"/><path d="M18836 27951 20600 8181h-9267v21850" fill="#2965f1"/><path d="m4729 16763 254 2838h6351v-2838zm6605-5745H4218l258 2838h6858Zm0 16068v-2953l-12 4-3161-854-202-2263h-2850l398 4456 5814 1614" fill="#ebebeb"/><path d="M5334 0h3438v1437h-2000v1438h2000v1437H5334zM9460 0h3437v1250h-2000v250h2000v2874H9460V3062h2000v-250h-2000zm4125 0h3437v1250h-2000v250h2000v2874h-3437V3062h2000v-250h-2000"/><path d="m14819 19600-330 3681-3165 855v2952l5818-1612 43-480 667-7471 70-762 512-5745h-7110v2838h4000l-259 2907h-3740V19600" fill="#fff"/></g></svg>
