<svg xmlns="http://www.w3.org/2000/svg" xml:space="preserve" version="1.1" viewBox="0 0 6.802 8.467"><g fill="#a80030"><path d="M4.065 4.474c-.14.002.026.072.21.1a1.875 1.875 0 0 0 .137-.118c-.114.028-.23.028-.347.018m.753-.188a.891.891 0 0 0 .166-.372c-.019.093-.07.173-.117.258-.262.165-.025-.098 0-.198-.282.355-.039.213-.05.312m.279-.723c.017-.253-.05-.173-.072-.077.026.014.046.178.072.077M3.533.109c.075.014.161.024.15.042.081-.018.1-.035-.15-.042m.15.042-.054.01.05-.004.003-.006"/><path d="M6.017 3.658c.008.227-.066.337-.134.532l-.12.06c-.1.194.009.123-.062.276-.155.138-.47.431-.571.458-.074-.001.05-.087.066-.12-.208.142-.167.214-.484.3l-.01-.02c-.781.368-1.868-.362-1.853-1.357-.009.063-.024.048-.042.073-.04-.512.237-1.026.704-1.236a1.187 1.187 0 0 1 1.319.172c-.18-.236-.538-.485-.961-.462-.416.007-.804.27-.934.557-.212.134-.237.516-.33.586-.124.916.235 1.312.843 1.778.095.065.027.074.04.124a1.649 1.649 0 0 1-.54-.413c.081.119.168.233.281.324-.19-.065-.445-.462-.519-.478.328.588 1.331 1.03 1.857.81-.243.01-.552.006-.825-.095-.115-.06-.27-.182-.243-.204.717.267 1.457.202 2.078-.295.158-.123.33-.332.38-.335-.075.113.013.055-.045.154.157-.253-.068-.103.163-.438l.085.118c-.032-.21.261-.466.231-.8.068-.101.075.11.004.344.1-.26.026-.301.052-.516.027.072.063.15.082.225-.065-.251.066-.423.098-.569-.032-.014-.1.111-.115-.185.002-.13.036-.068.049-.1-.025-.014-.092-.113-.132-.302.03-.045.078.115.118.122-.026-.15-.07-.266-.071-.381-.117-.243-.042.032-.136-.105-.124-.386.103-.09.118-.265.188.272.295.694.344.868a3.556 3.556 0 0 0-.172-.618c.057.024-.092-.438.074-.132C6.527 1.46 5.945.85 5.411.565c.065.06.148.135.118.147-.266-.158-.22-.17-.257-.237-.217-.089-.231.007-.375 0C4.49.258 4.41.28 4.035.145l.017.08c-.27-.09-.316.035-.608 0-.018-.013.094-.05.186-.063-.262.034-.25-.052-.506.01.063-.045.13-.074.197-.112-.213.013-.509.125-.418.023-.347.156-.965.374-1.312.699L1.58.709c-.159.19-.693.57-.735.816l-.043.01c-.083.14-.136.299-.202.443-.108.184-.158.071-.143.1-.212.431-.318.793-.41 1.09.066.098.002.586.027.976-.107 1.93 1.353 3.802 2.95 4.234.234.084.582.08.878.09-.35-.1-.394-.053-.735-.172-.245-.116-.299-.248-.473-.398l.07.121c-.342-.12-.2-.15-.476-.237l.073-.096c-.11-.008-.293-.186-.342-.285l-.121.005c-.145-.18-.223-.308-.217-.408l-.04.07c-.044-.077-.534-.673-.28-.534-.047-.043-.11-.07-.177-.194l.051-.06c-.122-.156-.225-.358-.217-.425.065.088.11.104.155.12-.309-.767-.326-.043-.56-.781l.05-.004C.625 5.133.602 5.07.57 5.01l.022-.215C.37 4.538.53 3.702.563 3.243c.022-.187.185-.385.31-.697l-.076-.013c.144-.252.826-1.014 1.142-.975.153-.192-.03 0-.06-.049.336-.347.441-.245.668-.308.245-.145-.21.057-.094-.055.423-.108.3-.246.851-.3.058.033-.135.05-.183.094.352-.173 1.114-.133 1.61.095.574.269 1.22 1.063 1.245 1.81l.029.007c-.015.297.045.64-.059.956l.071-.15"/><path d="m2.533 4.666-.02.099c.093.125.166.26.284.358-.085-.165-.148-.233-.264-.457m.218-.008c-.049-.054-.077-.12-.11-.184.031.114.095.212.153.31l-.043-.126m3.858-.839-.021.052c-.038.268-.12.534-.244.78a2.45 2.45 0 0 0 .265-.832M3.56.042c.095-.035.234-.02.334-.042-.13.011-.261.018-.39.034l.056.008M.23 1.812c.022.203-.152.282.039.148.102-.23-.04-.063-.039-.147m-.224.936c.044-.134.052-.215.069-.294-.122.156-.056.189-.07.294"/></g></svg>