<svg xmlns="http://www.w3.org/2000/svg" xml:space="preserve" version="1.1" viewBox="0 0 8.467 5.888"><path d="M4.791 2.318h.877m-1.92 0h.876m-1.9 0h.877m-1.9 0h.856m-1.9 0h.877m.167-.96h.856m.167 0h.877m.146 0h.877M3.747.396h.877" stroke="#066da5" stroke-width=".793"/><path d="M8.466 2.36s-.375-.355-1.148-.23c-.084-.606-.73-.96-.73-.96s-.606.73-.168 1.545a1.4 1.4 0 0 1-.647.146H.03c-.105.396-.105 3.027 2.777 3.027 2.067 0 3.612-.96 4.343-2.714 1.086.083 1.315-.814 1.315-.814" fill="#066da5"/></svg>