<svg xmlns="http://www.w3.org/2000/svg" xml:space="preserve" version="1.1" viewBox="0 0 8.467 7.615"><g fill-rule="evenodd" stroke-linejoin="round" stroke-miterlimit="2" clip-rule="evenodd"><path d="M5.92 1.045h.976c.867 0 1.57.704 1.57 1.571v3.429a1.57 1.57 0 0 1-1.57 1.57h-.077c-.446-.07-.64-.203-.79-.316l-1.24-1.02a.175.175 0 0 0-.219 0l-.402.332-1.134-.933a.175.175 0 0 0-.22 0L1.24 7.064c-.318.258-.527.21-.663.196A1.569 1.569 0 0 1 0 6.045V2.616c0-.867.704-1.57 1.571-1.57h.973l-.002.003-.032.096-.01.032-.045.196-.006.035-.02.196-.002.054v.018l.002.09.004.053.01.083.015.074.016.068.022.074.056.157.018.047.097.205.034.063.112.192.043.07.156.23.023.03.204.265.065.082.233.272.048.052.191.206.076.079.126.124-.026.021-.015.014a1.537 1.537 0 0 0-.121.127 1.058 1.058 0 0 0-.12.176.634.634 0 0 0-.026.06.563.563 0 0 0-.037.166v.05a.571.571 0 0 0 .041.2.56.56 0 0 0 .112.176.572.572 0 0 0 .118.096.659.659 0 0 0 .395.087H4.3a.626.626 0 0 0 .229-.067.587.587 0 0 0 .087-.057.56.56 0 0 0 .177-.234.584.584 0 0 0 .041-.227l-.002-.04a.573.573 0 0 0-.038-.157.879.879 0 0 0-.135-.22 1.511 1.511 0 0 0-.135-.14l-.034-.03.058-.056.247-.258.085-.094.133-.15.086-.1.123-.15.084-.105.122-.164.062-.084.088-.131.073-.112.137-.24.079-.157.002-.005.06-.145a.06.06 0 0 0 .002-.006l.065-.203.007-.03.028-.16.006-.044.001-.026.002-.101v-.02l-.005-.09-.007-.07-.032-.202a.077.077 0 0 0-.002-.008l-.04-.15-.015-.04zm.464 4.275a.38.38 0 0 0-.372.372.38.38 0 0 0 .372.373.38.38 0 0 0 .373-.373.38.38 0 0 0-.373-.372z" fill="#24175b" fill-opacity=".35"/><path d="m3.676 7.482-.066.055a.345.345 0 0 1-.216.079H1.571a1.565 1.565 0 0 1-.995-.356c.136.015.345.062.663-.196l1.575-1.386a.175.175 0 0 1 .22 0l1.134.933.402-.331a.175.175 0 0 1 .22 0l1.24 1.019c.149.113.343.247.789.317h-.825a.35.35 0 0 1-.202-.068l-.015-.01-.06-.052A.12.12 0 0 0 5.7 7.47a1107.554 1107.554 0 0 0-.948-.786.103.103 0 0 0-.132 0s.003.003-.932.786a.116.116 0 0 0-.012.012zM6.384 5.32a.38.38 0 0 0-.372.372.38.38 0 0 0 .372.373.38.38 0 0 0 .373-.373.38.38 0 0 0-.373-.372zM3.978 4.192l-.126-.124-.076-.079-.191-.206-.048-.052-.233-.272-.065-.082-.204-.265-.023-.03-.156-.23-.043-.07-.112-.192-.034-.063-.097-.205-.018-.047-.056-.157-.022-.074-.016-.068-.014-.074-.011-.083-.004-.053-.002-.09v-.018l.003-.054.02-.196.005-.035.044-.196.01-.032.033-.096.01-.025.053-.114.036-.069.05-.083.05-.074.037-.047.04-.05.046-.05.04-.039.094-.083.069-.057a.063.063 0 0 1 .005-.003l.082-.056.065-.041.124-.065.006-.003.175-.073.016-.006.156-.046.066-.014.089-.018.058-.01.09-.01.063-.006.122-.006L4.232 0l.09.002.024.001.132.011.174.025.02.004.172.043.05.015.057.02.068.025.054.023.08.037.05.026.09.053.033.02.123.09.035.03.085.078.005.005.072.077.025.028.085.114.017.027.068.114.02.039.038.085.04.1.014.04.041.15.002.008.032.202.007.07.005.09v.02l-.002.1-.001.027-.006.044-.028.16-.007.03-.065.203a.06.06 0 0 1-.002.006l-.06.145-.002.005-.079.157-.137.24-.073.112-.088.13-.062.085-.122.164-.084.105-.123.15-.086.1-.133.15-.085.094-.247.258-.058.056.034.03a1.505 1.505 0 0 1 .172.187.879.879 0 0 1 .098.173.57.57 0 0 1 .038.156l.002.04a.585.585 0 0 1-.041.228.56.56 0 0 1-.177.234.587.587 0 0 1-.087.057.626.626 0 0 1-.229.068.659.659 0 0 1-.278-.032.605.605 0 0 1-.118-.056.571.571 0 0 1-.118-.096.56.56 0 0 1-.112-.175.581.581 0 0 1-.041-.202v-.049a.563.563 0 0 1 .064-.226.854.854 0 0 1 .119-.176 1.537 1.537 0 0 1 .12-.127l.016-.014z" fill="#24175b"/><path d="m3.61 7.537 1.01-.853a.103.103 0 0 1 .132 0l1.025.853a.35.35 0 0 0 .221.079H3.391a.345.345 0 0 0 .219-.079zm.629-3.044.01.003.009.006.008.007a1.197 1.197 0 0 1 .098.103.643.643 0 0 1 .061.09.263.263 0 0 1 .012.025.17.17 0 0 1 .012.049v.031a.178.178 0 0 1-.084.138.24.24 0 0 1-.103.034l-.038.001-.033-.003a.252.252 0 0 1-.044-.01.211.211 0 0 1-.043-.02l-.025-.019a.174.174 0 0 1-.058-.099.254.254 0 0 1-.003-.02v-.03l.003-.023a.247.247 0 0 1 .019-.05c.01-.02.022-.04.035-.058a.888.888 0 0 1 .122-.135l.013-.01c.008-.007.009-.007.018-.01zM4.175.353h.004v3.472l-.009-.016a9.697 9.697 0 0 1-.319-.647 6.911 6.911 0 0 1-.216-.542 4.277 4.277 0 0 1-.13-.446 2.385 2.385 0 0 1-.058-.365 1.776 1.776 0 0 1-.003-.157 3.093 3.093 0 0 1 .028-.352 2.146 2.146 0 0 1 .067-.297A1.541 1.541 0 0 1 3.64.758a.845.845 0 0 1 .277-.315.58.58 0 0 1 .258-.09zm.45.008.234.067a1.43 1.43 0 0 1 .308.157 1.236 1.236 0 0 1 .331.33 1.248 1.248 0 0 1 .128.248 1.45 1.45 0 0 1 .09.4 1.632 1.632 0 0 1 .003.208 1.13 1.13 0 0 1-.042.221 1.738 1.738 0 0 1-.06.174 2.506 2.506 0 0 1-.096.207c-.078.15-.168.295-.264.434a6.75 6.75 0 0 1-.38.495 9.403 9.403 0 0 1-.455.505c.107-.2.207-.405.3-.613a7.603 7.603 0 0 0 .146-.352 5.516 5.516 0 0 0 .135-.395 3.87 3.87 0 0 0 .078-.303 2.48 2.48 0 0 0 .043-.265c.007-.074.01-.149.008-.223a3.151 3.151 0 0 0-.005-.137 2.34 2.34 0 0 0-.092-.541 1.585 1.585 0 0 0-.074-.195 1.043 1.043 0 0 0-.292-.39Z" fill="#fff"/></g></svg>