<svg xmlns="http://www.w3.org/2000/svg" xmlns:xlink="http://www.w3.org/1999/xlink" xml:space="preserve" version="1.1" viewBox="0 0 8.467 7.536"><g transform="translate(0 -.465) scale(.06615)"><linearGradient id="a" x1="64" x2="64" y1="7.034" y2="120.789" gradientUnits="userSpaceOnUse"><stop offset="0" stop-color="#4387fd"/><stop offset="1" stop-color="#4683ea"/></linearGradient><path d="M27.79 115.217 1.54 69.749a11.499 11.499 0 0 1 0-11.499l26.25-45.467a11.5 11.5 0 0 1 9.96-5.75h52.5a11.5 11.5 0 0 1 9.959 5.75l26.25 45.467a11.499 11.499 0 0 1 0 11.5l-26.25 45.466a11.5 11.5 0 0 1-9.959 5.75h-52.5a11.499 11.499 0 0 1-9.96-5.75z" fill="url(#a)"/></g><g transform="translate(0 -.465) scale(.06615)"><clipPath id="b"><use xlink:href="#b-2" width="100%" height="100%" overflow="visible"/></clipPath><path d="m72.531 46.25-6.75-6.75-3.125 6.687-6.671-6.671-1.641 8.088-5.938 1.02-1.232 5.282-7.683 1.835 6.884 6.884-6.81 3.033 6.81 6.81-6.854 2.928 46.682 46.682 11.464-.037 21.552-38.926L75.635 39.53Z" clip-path="url(#b)" opacity=".07"/></g><g fill="#fff"><path d="M4.62 3.312h-.755a.08.08 0 0 0-.08.08v.754a.08.08 0 0 0 .08.08h.754a.08.08 0 0 0 .08-.08v-.754a.08.08 0 0 0-.08-.08"/><path d="M5.814 3.25c.04 0 .072-.032.072-.071V3.06a.072.072 0 0 0-.072-.072h-.367v-.343a.08.08 0 0 0-.08-.08h-.345v-.369a.072.072 0 0 0-.072-.072h-.118a.072.072 0 0 0-.072.072v.369h-.387v-.369a.072.072 0 0 0-.072-.072h-.118a.072.072 0 0 0-.072.072v.369h-.387v-.369a.072.072 0 0 0-.072-.072h-.118a.072.072 0 0 0-.072.072v.369h-.344a.08.08 0 0 0-.08.08v.343H2.67a.072.072 0 0 0-.072.072v.118c0 .04.033.072.072.072h.367v.387H2.67a.072.072 0 0 0-.072.072v.118c0 .04.033.072.072.072h.367v.388H2.67a.072.072 0 0 0-.072.072v.117c0 .04.033.072.072.072h.367v.344c0 .044.036.08.08.08h.345v.368c0 .04.032.072.072.072h.117c.04 0 .072-.032.072-.072v-.368h.388v.368c0 .04.033.072.072.072h.118c.04 0 .072-.032.072-.072v-.368h.387v.368c0 .04.033.072.073.072h.117c.04 0 .072-.032.072-.072v-.368h.344a.08.08 0 0 0 .08-.08v-.344h.368c.04 0 .072-.032.072-.072V4.36a.072.072 0 0 0-.072-.072h-.367V3.9h.367c.04 0 .072-.032.072-.072v-.117a.072.072 0 0 0-.072-.073h-.367v-.387h.367zm-.638 1.453H3.308V2.835h1.868z"/></g></svg>