<svg xmlns="http://www.w3.org/2000/svg" xml:space="preserve" version="1.1" viewBox="0 0 8.467 7.528"><path d="M5.532 1.506 4.667 0H2.4a.558.558 0 0 0-.489.284L.075 3.483c-.1.174-.1.386 0 .563l.698 1.217.863-1.498 1.298-2.259z" fill="#f8bb16"/><path d="M8.391 3.483 6.556.284A.57.57 0 0 0 6.068 0h-1.4l.864 1.506 1.298 2.26-1.298 2.258h1.726L8.39 4.046a.575.575 0 0 0 0-.563" fill="#ea4334" fill-rule="evenodd" clip-rule="evenodd"/><path d="M7.256 6.022H2.93L1.632 3.763.769 5.261l1.137 1.981a.57.57 0 0 0 .489.284h3.669c.202 0 .39-.108.488-.284z" fill="#0074bc"/><path d="M5.528 6.022h-2.6L1.632 3.763 2.93 1.504h2.598l1.302 2.26ZM4.23 2.636c-.625 0-1.13.504-1.13 1.13 0 .625.505 1.129 1.13 1.129a1.13 1.13 0 1 0 0-2.26z" fill="#e2e3e4"/></svg>