<svg xmlns="http://www.w3.org/2000/svg" xmlns:xlink="http://www.w3.org/1999/xlink" xml:space="preserve" version="1.1" viewBox="0 0 8.467 7.536"><g transform="translate(0 -.465) scale(.06615)"><linearGradient id="a" x1="64" x2="64" y1="7.034" y2="120.789" gradientUnits="userSpaceOnUse"><stop offset="0" stop-color="#4387fd"/><stop offset="1" stop-color="#4683ea"/></linearGradient><path d="M27.79 115.217 1.54 69.749a11.499 11.499 0 0 1 0-11.499l26.25-45.467a11.5 11.5 0 0 1 9.96-5.75h52.5a11.5 11.5 0 0 1 9.959 5.75l26.25 45.467a11.499 11.499 0 0 1 0 11.5l-26.25 45.466a11.5 11.5 0 0 1-9.959 5.75h-52.5a11.499 11.499 0 0 1-9.96-5.75z" fill="url(#a)"/></g><g transform="translate(0 -.465) scale(.06615)"><clipPath id="b"><use xlink:href="#b" width="100%" height="100%" overflow="visible"/></clipPath><path d="m49.313 53.875-7.01 6.99 5.957 5.958-5.898 10.476 44.635 44.636 10.816.002L118.936 84 85.489 50.55Z" clip-path="url(#b)" opacity=".07"/></g><path d="M5.603 2.86H2.862a.08.08 0 0 0-.08.08v.567c0 .044.036.08.08.08h2.74a.08.08 0 0 0 .081-.08V2.94a.08.08 0 0 0-.08-.08m-.424.528a.164.164 0 0 1-.164-.164.164.164 0 0 1 .164-.164c.09 0 .164.073.164.164a.164.164 0 0 1-.164.164m.424.561H2.862a.08.08 0 0 0-.08.08v.567c0 .044.036.08.08.08h2.74a.08.08 0 0 0 .081-.08V4.03a.08.08 0 0 0-.08-.08m-.424.527a.164.164 0 0 1-.164-.164.164.164 0 0 1 .164-.164.164.164 0 1 1 0 .328" fill="#fff"/></svg>