<svg xmlns="http://www.w3.org/2000/svg" xml:space="preserve" version="1.1" viewBox="0 0 8.467 8.258"><path d="M4.234 0a4.233 4.233 0 0 0-1.339 8.251c.212.038.291-.09.291-.2 0-.101-.005-.435-.005-.79-1.064.197-1.34-.259-1.424-.497-.047-.122-.254-.497-.434-.598-.148-.08-.36-.275-.005-.28.333-.006.572.307.65.434.382.64.99.46 1.234.349.037-.275.148-.46.27-.566-.942-.106-1.927-.471-1.927-2.091 0-.46.165-.842.435-1.138-.043-.106-.191-.54.042-1.122 0 0 .354-.111 1.164.434a3.929 3.929 0 0 1 1.059-.143c.36 0 .72.048 1.058.143.81-.55 1.165-.434 1.165-.434.233.582.084 1.016.042 1.122.27.296.434.672.434 1.138 0 1.625-.99 1.985-1.932 2.09.154.133.286.387.286.784 0 .566-.005 1.021-.005 1.164 0 .111.08.244.29.201a4.241 4.241 0 0 0 2.885-4.017A4.233 4.233 0 0 0 4.234 0Z" fill="#1b1f23" fill-rule="evenodd" clip-rule="evenodd"/></svg>