<svg xmlns="http://www.w3.org/2000/svg" xml:space="preserve" version="1.1" viewBox="0 0 5.909 8.467"><path d="M3.85.14a2.947 2.947 0 0 0-3.16.914l1.395 1.171z" fill="#1a73e8"/><path d="M.69 1.055A2.951 2.951 0 0 0 0 2.948c0 .556.109 1.004.294 1.407l1.79-2.13z" fill="#ea4335"/><path d="M2.954 1.823a1.13 1.13 0 0 1 .864 1.86s.889-1.061 1.758-2.09A2.946 2.946 0 0 0 3.85.14L2.085 2.225c.21-.243.518-.402.87-.402" fill="#4285f4"/><path d="M2.954 4.08a1.13 1.13 0 0 1-1.131-1.132c0-.275.096-.53.262-.723l-1.79 2.13c.306.678.818 1.228 1.342 1.912l2.18-2.59c-.21.25-.517.403-.863.403" fill="#fbbc04"/><path d="M3.78 6.983c.984-1.54 2.129-2.238 2.129-4.029 0-.492-.122-.952-.333-1.362L1.637 6.267c.166.218.34.467.505.723.601.927.435 1.477.819 1.477.384 0 .217-.556.818-1.484" fill="#34a853"/></svg>