<svg xmlns="http://www.w3.org/2000/svg" version="1.1" viewBox="0 0 106.201 94.709"><path d="m29.78 7.877 7.893-7.893v15.07H29.78zm46.642 0L68.528-.016v15.07h7.894z" fill="#7b7b7b" fill-rule="evenodd"/><path d="M37.673-.016h30.855v7.535H37.673Z" fill="#5a5a5a"/><g fill-rule="evenodd"><path d="M97.59 94.705H8.61A8.61 8.61 0 0 1 0 86.094V29.849l14.796-14.796h76.61l14.796 14.796v56.245a8.61 8.61 0 0 1-8.611 8.61z" fill="#e6e7e8"/><path d="M0 45.55v-15.7l14.796-14.796h76.61l14.796 14.796v15.7Z" fill="#d0d1d2"/><path d="M12.199 94.705V33.71a3.588 3.588 0 0 1 3.588-3.588h74.628a3.588 3.588 0 0 1 3.588 3.588v60.995z" fill="#458cf5"/></g><path d="M12.199 45.55h81.803v49.154H12.2Z" fill="#fff"/><path d="M69.605 94.704v-14.71l-7.176-7.176-4.664-12.916 3.229-8.253 18.298 18.299 3.23-13.634 11.48 11.48v26.91Z" fill="#d2d3d4" fill-rule="evenodd"/><path d="M17.58 51.29h27.268v30.498H17.581Zm0 37.315h35.162v6.099H17.58Z" fill="#d2d3d4"/><path d="M76.422 83.259v11.445h-15.07V83.42a17.763 17.763 0 0 1-.358-32.164v16.898l7.534 4.664 7.894-4.664v-16.9a17.766 17.766 0 0 1 0 32.005z" fill="#505050" fill-rule="evenodd"/><path d="M20.63 34.069a3.05 3.05 0 1 1-3.05 3.05 3.05 3.05 0 0 1 3.05-3.05zm8.97 0a3.05 3.05 0 1 1-3.05 3.05 3.05 3.05 0 0 1 3.05-3.05Z" fill="#e6e7e8" fill-rule="evenodd"/></svg>