<?xml version="1.0" encoding="utf-8"?>
<!-- Generator: Adobe Illustrator 23.0.1, SVG Export Plug-In . SVG Version: 6.00 Build 0)  -->
<svg version="1.1" id="Capa_1" xmlns="http://www.w3.org/2000/svg" xmlns:xlink="http://www.w3.org/1999/xlink" x="0px" y="0px"
	 viewBox="0 0 226.3 66.7" style="enable-background:new 0 0 226.3 66.7;" xml:space="preserve">
<style type="text/css">
	.st0{fill:#BDBEC0;}
	.st1{fill:url(#SVGID_1_);}
	.st2{fill:url(#SVGID_2_);}
	.st3{fill:#F7F6F5;}
</style>
<g>
	<path class="st0" d="M47.2,53.9c-1.7,0-3.2,0.1-3.9,0.3c-2.3-0.4-6.1-0.6-10.3-0.6c-4.5,0-8.5,0.3-10.8,0.6
		c-0.6-0.2-2.2-0.4-4.2-0.4c-2.4,0-4.4,0.3-4.4,0.6c0,0.3,2,0.6,4.4,0.6c0.7,0,1.4,0,2-0.1c0,0,0,0,0,0c0,0.8,5.8,1.4,12.9,1.4
		c7.1,0,12.9-0.6,12.9-1.4c0.4,0,0.9,0,1.4,0c2.4,0,4.4-0.3,4.4-0.6C51.6,54.2,49.6,53.9,47.2,53.9z"/>
	<g>
		<linearGradient id="SVGID_1_" gradientUnits="userSpaceOnUse" x1="29.238" y1="57.0871" x2="29.1823" y2="52.9096">
			<stop  offset="5.500110e-02" style="stop-color:#FFFFFF"/>
			<stop  offset="6.219550e-02" style="stop-color:#F0EFEF"/>
			<stop  offset="0.1036" style="stop-color:#C3C1C1"/>
			<stop  offset="0.1502" style="stop-color:#A29EA0"/>
			<stop  offset="0.2017" style="stop-color:#888587"/>
			<stop  offset="0.2599" style="stop-color:#767475"/>
			<stop  offset="0.3278" style="stop-color:#686769"/>
			<stop  offset="0.4118" style="stop-color:#5F5F61"/>
			<stop  offset="0.5296" style="stop-color:#5A5B5D"/>
			<stop  offset="0.8567" style="stop-color:#595A5C"/>
		</linearGradient>
		<path class="st1" d="M27.3,53.8v2.7c1.2,0,2.5,0.1,3.8,0.1v-2.9C29.8,53.7,28.5,53.7,27.3,53.8z"/>
		<linearGradient id="SVGID_2_" gradientUnits="userSpaceOnUse" x1="36.4123" y1="57.0015" x2="36.3567" y2="52.8231">
			<stop  offset="5.500110e-02" style="stop-color:#FFFFFF"/>
			<stop  offset="6.219550e-02" style="stop-color:#F0EFEF"/>
			<stop  offset="0.1036" style="stop-color:#C3C1C1"/>
			<stop  offset="0.1502" style="stop-color:#A29EA0"/>
			<stop  offset="0.2017" style="stop-color:#888587"/>
			<stop  offset="0.2599" style="stop-color:#767475"/>
			<stop  offset="0.3278" style="stop-color:#686769"/>
			<stop  offset="0.4118" style="stop-color:#5F5F61"/>
			<stop  offset="0.5296" style="stop-color:#5A5B5D"/>
			<stop  offset="0.8567" style="stop-color:#595A5C"/>
		</linearGradient>
		<path class="st2" d="M34.5,53.7v2.9c1.3,0,2.6,0,3.8-0.1v-2.7C37.1,53.8,35.8,53.7,34.5,53.7z"/>
	</g>
	<g>
		<rect x="27.3" y="49.5" class="st3" width="3.8" height="4.8"/>
		<rect x="34.5" y="49.3" class="st3" width="3.8" height="5"/>
		<path class="st3" d="M32,25.1c0,0.5-0.4,0.9-0.9,0.9c-0.5,0-0.9-0.4-0.9-0.9c0-0.5,0.4-0.9,0.9-0.9C31.6,24.2,32,24.6,32,25.1z"/>
		<path class="st3" d="M34.9,25.1c0,0.5-0.4,0.9-0.9,0.9c-0.5,0-0.9-0.4-0.9-0.9c0-0.5,0.4-0.9,0.9-0.9
			C34.5,24.2,34.9,24.6,34.9,25.1z"/>
		<path class="st3" d="M32.6,11.3L32.6,11.3L32.6,11.3L7.4,38.5c1.6,2.2,4.7,4,8.4,4.1c0.6,0,1.2-0.1,1.8-0.2
			c2.5,5.7,8.3,9.7,15,9.7c6.7,0,12.4-4,15-9.7c0.6,0.1,1.2,0.2,1.8,0.2c3.7-0.1,6.7-1.8,8.4-4.1L32.6,11.3z M11.1,38.5
			c0,0,4.8-5.4,9.6-10.4c1.2,1.1,4.7,4.8,1,9.4C17.2,42.1,12.3,39.3,11.1,38.5z M32.6,49.4c-5.4,0-10.1-3.2-12.3-7.8
			c2.7-1,6.1-4,5.8-8.8c-0.2-2.4-0.8-4.2-3.6-6.7c4.2-4.6,10.1-10.9,10.1-10.9s5.8,6.3,10.1,10.9c-2.7,2.5-3.4,4.3-3.6,6.7
			c-0.3,4.7,3.1,7.8,5.8,8.8C42.7,46.2,38,49.4,32.6,49.4z M43.5,37.4c-3.7-4.6-0.2-8.3,1-9.4c4.8,5.1,9.6,10.4,9.6,10.4
			C52.8,39.3,48,42.1,43.5,37.4z"/>
	</g>
	<g>
		<path class="st3" d="M102.3,46.8c-1.5,0-2.8-1.2-2.8-2.8l0,0l0-0.1v-1.9l-1.3,1c-1.3,1-2.7,1.7-4.2,2.3c-1.9,0.8-4.1,1.1-6.5,1.1
			c-2.4,0-4.6-0.4-6.7-1.3c-2.1-0.9-3.9-2.1-5.4-3.6c-1.5-1.5-2.8-3.4-3.6-5.4c-0.9-2.1-1.3-4.3-1.3-6.7c0-2.4,0.4-4.7,1.3-6.7
			c0.9-2.1,2.1-3.9,3.6-5.4c1.5-1.5,3.4-2.8,5.4-3.6c2-0.9,4.5-1.3,6.9-1.3c1.5,0,2.7,1.3,2.7,2.8c0,1.5-1.2,2.7-2.7,2.8l-0.1,0l0,0
			c-1,0-3.2,0.4-4.5,1c-1.3,0.6-2.5,1.4-3.5,2.5c-1,1-1.7,2.3-2.3,3.6c-0.6,1.4-0.8,2.9-0.8,4.4c0,1.6,0.3,3,0.8,4.4
			c0.6,1.4,1.3,2.6,2.3,3.6c1,1,2.1,1.9,3.5,2.5c1.3,0.6,2.8,0.9,4.3,0.9c1.6,0,3-0.3,4.3-0.8c1.3-0.6,2.5-1.3,3.5-2.3
			c1-1,1.8-2.1,2.5-3.5c0.1-0.2,0.2-0.3,0.2-0.5l0.5-1.1H87.7c-0.9-0.1-2.5-0.7-2.5-2.8c0-2.1,1.6-2.8,2.4-2.8l11.8,0l0-0.8
			c0-0.6,0.1-1.1,0.2-1.5c0.2-0.9,0.4-1.5,0.7-2.1l0.1-0.2c0.9-2.1,1.8-3.5,3.4-5c1.5-1.5,3.4-2.7,5.5-3.7c1.6-0.7,4.1-1.5,6.9-1.5
			c2.7,0,4.9,0.4,6.7,1.2c2.3,1,4.2,2.2,5.6,3.6c0.5,0.5,0.9,1,1.3,1.4l0.6,0.7l0.6-0.8c0.3-0.4,0.7-0.8,1.1-1.2
			c1.5-1.5,3.4-2.8,5.5-3.7c2.1-0.9,4.3-1.3,6.7-1.3c2.4,0,4.7,0.5,6.8,1.3c2.1,0.9,3.9,2.1,5.4,3.7c0.5,0.5,1,1,1.4,1.6l0.6,0.8
			l0.7-0.8c0.5-0.6,0.9-1.1,1.4-1.6c1.6-1.5,3.4-2.8,5.5-3.7c2.1-0.9,4.3-1.3,6.7-1.3c2.4,0,4.7,0.5,6.8,1.3c1.3,0.5,2.4,1.2,3.5,2
			l1.3,1v-1.9l0-0.1l0-0.1c0.1-1.5,1.3-2.6,2.8-2.6c1.5,0,2.8,1.2,2.8,2.7l0,0.1v1.5l1.3-0.9c1.2-0.8,2.5-1.5,3.9-2
			c2-0.7,4.2-1.1,6.3-1.1c2.4,0,4.7,0.4,6.7,1.3c2.1,0.9,3.9,2.1,5.5,3.7c1.5,1.5,2.8,3.4,3.7,5.5c0.9,2.1,1.3,4.3,1.3,6.7
			c0,2.4-0.4,4.6-1.3,6.7c-0.9,2.1-2.1,3.9-3.7,5.5c-1.5,1.5-3.4,2.8-5.5,3.7c-2,0.8-4.1,1.2-6.7,1.2l-0.1,0c-1.6,0-2.8-1.3-2.8-2.9
			c0-1.6,1.3-2.9,2.9-2.9l0.1,0l0.1,0c1.6,0,3-0.1,4.4-0.7c1.4-0.6,2.6-1.4,3.7-2.5c1-1,1.9-2.3,2.5-3.7c0.6-1.4,0.9-2.9,0.9-4.4
			c0-1.6-0.3-3.1-0.9-4.4c-0.6-1.4-1.4-2.6-2.5-3.7c-1-1-2.3-1.9-3.7-2.5c-1.4-0.6-2.9-0.9-4.4-0.9c-1.4,0-2.8,0.3-4.1,0.8
			c-1.3,0.5-2.5,1.3-3.6,2.2c-1,0.9-1.9,2.1-2.6,3.3c-0.7,1.2-1.1,2.6-1.2,4l0,0.1v3.1l0,0.9c0,0.1-0.1,0.2-0.2,0.2h-17.1l-0.1,0
			l-0.1,0c-1.5-0.1-2.6-1.3-2.6-2.8c0-1.5,1.2-2.7,2.6-2.8l0.1,0l0.1,0h11.9l-0.3-1.1c-1.6-4.8-6-8.1-11.1-8.1
			c-5.2,0-9.8,3.5-11.2,8.5l0,0.1c-0.3,0.9-0.4,2-0.4,3c0,4.7,2.8,9,7.2,10.8c0.2,0.1,1.1,0.4,1.4,0.5c0.8,0.2,1.7,0.3,2.6,0.4
			l0.1,0l0.1,0c1.3,0.2,2.3,1.3,2.3,2.7c0,1.3-1,2.5-2.3,2.7l-0.1,0l-0.1,0h-0.1c-2.6,0-4.6-0.4-6.6-1.2c-2.1-0.9-3.9-2.1-5.5-3.6
			c-1.5-1.5-2.8-3.4-3.7-5.4c-0.4-0.9-0.7-1.9-0.9-3l-0.1-0.6h-11.6l-0.1,0l-0.1,0c-1.5-0.1-2.6-1.3-2.6-2.8c0-1.5,1.2-2.7,2.6-2.8
			l0.1,0l0.1,0l11.9,0l-0.3-1.1c-1.5-4.8-6-8.1-11.1-8.1c-5.2,0-9.8,3.5-11.2,8.5l0,0.1c-0.3,1-0.4,2-0.4,3.1c0,4.7,2.8,9,7.2,10.8
			c0.2,0.1,1.1,0.4,1.4,0.5c0.8,0.2,1.7,0.3,2.6,0.4c1.5,0.1,2.7,1.2,2.7,2.7c0,1.4-1.2,2.6-2.6,2.7l-0.1,0c-2.5,0-4.6-0.4-6.6-1.2
			c-2.1-0.9-3.9-2.1-5.5-3.6c-1.5-1.5-2.8-3.4-3.7-5.4c-0.9-2.1-1.3-4.4-1.3-6.8c0-1.1,0.1-2.2,0.3-3.2l0-0.2l-0.1-0.2
			c-0.2-0.7-0.6-1.4-1.1-2.3c-0.6-1-1.4-2-2.4-2.8c-1-0.8-2.1-1.5-3.5-2.1c-1.3-0.5-2.6-0.7-4.2-0.7c-1.2,0-2.7,0.3-3.9,0.8
			c-1.2,0.5-2.2,1.1-3.2,1.9c-1,0.8-1.7,1.7-2.4,2.7c-0.4,0.7-0.8,1.4-1.2,2.3c-0.3,0.8-0.6,2.3-0.6,2.9l0,1.7l0,13.7
			C105.1,45.6,103.8,46.8,102.3,46.8z"/>
	</g>
	<g>
		<path class="st3" d="M75.3,50.3c0-0.3,0.2-0.5,0.5-0.5c0.3,0,0.5,0.2,0.5,0.5c0,0.3-0.2,0.5-0.5,0.5
			C75.5,50.8,75.3,50.6,75.3,50.3z M75.4,52h0.7v4h-0.7V52z"/>
		<path class="st3" d="M87.2,52h0.7l0,0.8c0.3-0.6,0.8-0.9,1.4-0.9c0.9,0,1.5,0.6,1.5,1.6V56h-0.7v-2.4c0-0.7-0.3-1.1-1-1.1
			c-0.7,0-1.2,0.5-1.2,1.3V56h-0.7V52z"/>
		<path class="st3" d="M102.1,54.8v-2.2h-0.6V52h0.6v-2.1h0.7V52h1.1v0.6h-1.1v2.2c0,0.5,0.2,0.7,0.5,0.7c0.3,0,0.4-0.1,0.5-0.2
			l0.4,0.4c-0.2,0.2-0.5,0.4-1,0.4C102.6,56,102.1,55.7,102.1,54.8z"/>
		<path class="st3" d="M116.7,55.5c0.6,0,1-0.2,1.3-0.5l0.4,0.4c-0.4,0.4-0.9,0.7-1.7,0.7c-1.3,0-2.2-0.9-2.2-2.1s0.9-2.1,2.1-2.1
			c1.3,0,2.1,1,2,2.3h-3.4C115.3,54.9,115.8,55.5,116.7,55.5z M117.9,53.7c-0.1-0.7-0.5-1.2-1.3-1.2c-0.8,0-1.3,0.5-1.4,1.2H117.9z"
			/>
		<path class="st3" d="M129.5,52h0.7l0,0.8c0.3-0.6,0.7-0.9,1.2-0.9c0.3,0,0.5,0.1,0.7,0.2l-0.3,0.6c-0.1-0.1-0.3-0.2-0.5-0.2
			c-0.6,0-1,0.4-1,1.3V56h-0.7V52z"/>
		<path class="st3" d="M145,53.5c0-0.8-0.3-1.1-0.9-1.1c-0.6,0-0.9,0.2-1.2,0.6l-0.4-0.4c0.3-0.5,0.9-0.8,1.6-0.8
			c0.9,0,1.6,0.5,1.6,1.6V56H145l0-0.6c-0.3,0.4-0.7,0.7-1.3,0.7c-0.8,0-1.5-0.4-1.5-1.2c0-0.8,0.7-1.2,1.5-1.2L145,53.5L145,53.5z
			 M143.8,54.1c-0.5,0-0.9,0.2-0.9,0.7c0,0.5,0.3,0.7,1,0.7c0.6,0,1.1-0.3,1.1-0.9v-0.5H143.8z"/>
		<path class="st3" d="M156.5,54c0-1.2,0.9-2.1,2.1-2.1c0.7,0,1.2,0.3,1.6,0.7l-0.5,0.4c-0.2-0.3-0.6-0.5-1.1-0.5
			c-0.8,0-1.4,0.6-1.4,1.5c0,0.8,0.5,1.5,1.4,1.5c0.5,0,0.9-0.2,1.1-0.5l0.5,0.4c-0.4,0.5-0.9,0.7-1.6,0.7
			C157.4,56,156.5,55.1,156.5,54z"/>
		<path class="st3" d="M171.2,54.8v-2.2h-0.6V52h0.6v-2.1h0.7V52h1.1v0.6h-1.1v2.2c0,0.5,0.2,0.7,0.5,0.7c0.3,0,0.4-0.1,0.5-0.2
			l0.4,0.4c-0.2,0.2-0.5,0.4-1,0.4C171.7,56,171.2,55.7,171.2,54.8z"/>
		<path class="st3" d="M183.8,50.3c0-0.3,0.2-0.5,0.5-0.5c0.3,0,0.5,0.2,0.5,0.5c0,0.3-0.2,0.5-0.5,0.5
			C184.1,50.8,183.8,50.6,183.8,50.3z M184,52h0.7v4H184V52z"/>
		<path class="st3" d="M195.4,52h0.7l1.1,2.3c0.1,0.3,0.2,0.7,0.2,0.7s0.1-0.4,0.2-0.7l1-2.3h0.7l-1.9,4.1h-0.1L195.4,52z"/>
		<path class="st3" d="M209.6,54c0-1.2,0.9-2.1,2.1-2.1c1.2,0,2.1,0.9,2.1,2.1s-0.9,2.1-2.1,2.1C210.5,56,209.6,55.1,209.6,54z
			 M213.1,54c0-0.9-0.6-1.5-1.4-1.5c-0.9,0-1.4,0.6-1.4,1.5s0.6,1.5,1.4,1.5C212.6,55.5,213.1,54.8,213.1,54z"/>
	</g>
</g>
</svg>
