<svg xmlns="http://www.w3.org/2000/svg" xml:space="preserve" version="1.1" viewBox="0 0 6.829 8.467"><path d="M.807 0A.808.808 0 0 0 0 .808V7.66c0 .446.361.807.807.807h5.214a.807.807 0 0 0 .808-.807V.808A.808.808 0 0 0 6.021 0H.807z" fill="#6762a6" fill-opacity="1" display="inline"/><path d="M4.279 7.302V3.94s.219-.805-2.694.329c-.005.014-.005-3.11-.005-3.11l.952-.005v2.001s2.664-1.05 2.664.796v3.351h-.917zm.543-4.937h-1.01c.364-.444.692-1.205.692-1.205h1.044s-.178.496-.726 1.205zM1.597 7.296V5.382l.958.958z" fill="#fff" display="inline"/></svg>