<svg xmlns="http://www.w3.org/2000/svg" xml:space="preserve" version="1.1" viewBox="0 0 22675 32000"><path d="M2112 0H3550v1425h1325V0h1437v4313H4875V2875H3562v1438h-1450m6100-2875h-1270V0h3983v1438H9650v2875H8212M11556 0h1506l925 1519L14912 0h1506v4313h-1437V2175l-1006 1550-1007-1550v2138h-1412M17130 0h1437v2888h2038v1425H17130"/><path d="M2062 29438 0 6288h22675l-2063 23137L11318 32000" fill="#e44d26"/><path d="M11337 30031V8188h9269l-1769 19750" fill="#f16529"/><path d="M4212 11019h7125v2837H7325l262 2907h3750v2830h-6350m125 1426h2850l200 2269 3175 850V27100l-5825-1625" fill="#ebebeb"/><path d="M18437 11019h-7112v2837h6850m-257 2907h-6593V19600h3500l-332 3688-3168 850v2950l5812-1613" fill="#fff"/></svg>
