<svg xmlns="http://www.w3.org/2000/svg" version="1.1" viewBox="-1.193 .5 9.069 9.291"><path d="m-.951 6.901.03.06a.186.186 0 0 0 .017.036l.033.062.063.106.036.06c.023.037.05.074.072.112a2.474 2.474 0 0 0 .161.23c.03.042.061.083.094.124l.035.046.09.108.033.04c.04.049.082.095.124.14l.002.005c.052.065.108.123.17.175V8.2c.032.035.064.067.1.1l.04.039c.044.042.09.083.136.124l.002.001.023.02c.041.036.083.072.125.105l.05.042c.035.028.07.054.106.08l.055.043c.037.028.077.055.116.083l.043.03.011.009.113.074.05.032.177.11a3.918 3.918 0 0 0 .183.1c.023.014.05.026.074.038a3.984 3.984 0 0 0 .117.06l.002-.001.04.019c.047.024.097.047.15.07l.031.014c.058.025.116.05.176.073a8.91 8.91 0 0 0 .21.078l.02.006c.061.02.122.042.185.06l.045.014c.064.02.126.042.191.055 4.15.752 5.356-2.483 5.356-2.483-1.013 1.313-2.811 1.659-4.514 1.273-.063-.014-.126-.034-.19-.053a4.748 4.748 0 0 1-.267-.084l.038.01-.025-.01a2.428 2.428 0 0 1-.162-.06.618.618 0 0 0-.04-.011l-.004-.002a5.256 5.256 0 0 1-.175-.073c-.012-.004-.023-.01-.035-.015a5.516 5.516 0 0 1-.202-.093l.056.025a.6.6 0 0 1-.043-.02l-.113-.058a1.529 1.529 0 0 1-.084-.043l.008.004c-.046-.024-.091-.05-.137-.075-.014-.01-.03-.018-.045-.026a5.679 5.679 0 0 1-.203-.124l.025.015a.825.825 0 0 1-.05-.033h.003a2.44 2.44 0 0 1-.128-.083l-.04-.028a3.422 3.422 0 0 1-.13-.094l.01.007a.755.755 0 0 0-.053-.04l-.107-.084-.047-.041a4.104 4.104 0 0 1-.15-.124l-.14-.127-.04-.04L.85 6.99l-.04-.04a3.639 3.639 0 0 1-.12-.127L.689 6.82.68 6.814a7.222 7.222 0 0 1-.125-.142l-.032-.04-.092-.11a5.554 5.554 0 0 1-.121-.16L.294 6.34C-.65 5.06-.992 3.29-.235 1.838l-.668.843C-1.762 3.91-1.655 5.505-1 6.81c.015.032.032.062.048.092z" fill="#1266a9"/><path d="m2.392 5.663.036.036c.046.044.093.088.141.13l.006.006c.049.043.103.088.16.131l.008.007.039.03c.056.043.113.085.173.126l.006.001c.025.018.051.035.08.052l.036.025.128.078.02.01c.036.021.075.043.113.062l.04.022.08.041.013.006c.054.026.11.051.165.076l.037.015c.045.02.09.038.135.055l.058.021c.042.016.085.03.126.044l.056.018c.06.018.119.042.182.052 3.204.528 3.946-1.926 3.946-1.926-.668.956-1.96 1.41-3.337 1.056a3.319 3.319 0 0 1-.205-.06l.023.007a.501.501 0 0 1-.055-.017l-.126-.043-.058-.022c-.045-.018-.091-.035-.135-.055-.014-.006-.026-.01-.037-.016-.056-.025-.113-.05-.169-.077l-.083-.043-.048-.024-.107-.06a.225.225 0 0 1-.026-.015c-.042-.026-.086-.052-.128-.08l-.039-.024-.084-.055c-.058-.04-.115-.083-.173-.125l-.038-.032c-.605-.474-1.083-1.122-1.31-1.855-.238-.762-.186-1.617.227-2.31l-.507.714c-.619.889-.584 2.077-.099 3.018.088.173.177.32.276.46.093.13.194.286.317.392.044.05.09.097.14.145z" fill="#1266a9"/><path d="M4.001.874c-.367.537-.402 1.202-.15 1.793.27.628.818 1.12 1.458 1.354l.08.029.035.01c.037.012.074.026.113.034 1.77.34 2.25-.904 2.377-1.087-.42.602-1.127.747-1.994.537a1.92 1.92 0 0 1-.222-.068l.013.004a2.503 2.503 0 0 1-.265-.11l.015.008a2.607 2.607 0 0 1-.437-.268c-.776-.586-1.255-1.7-.75-2.61Z" fill="#1266a9"/></svg>