<svg xmlns="http://www.w3.org/2000/svg" version="1.1" viewBox="0 0 800 800"><g fill="none" fill-rule="evenodd"><path d="M88.889 800H711.11A88.889 88.889 0 0 0 800 711.11V88.889A88.889 88.889 0 0 0 711.11 0H88.889A88.889 88.889 0 0 0 0 88.889V711.11A88.889 88.889 0 0 0 88.889 800z" fill="#007ebb"/><path d="M688.889 688.889H570.178v-202.2c0-55.445-21.067-86.411-64.945-86.411-47.733 0-72.666 32.233-72.666 86.41v202.2H318.133V303.7h114.423v51.889s34.4-63.656 116.144-63.656c81.7 0 140.189 49.89 140.189 153.078ZM181.667 253.267c-38.978 0-70.556-31.823-70.556-71.078 0-39.256 31.578-71.078 70.556-71.078 38.966 0 70.522 31.822 70.522 71.078 0 39.255-31.556 71.078-70.533 71.078zm-59.09 435.622h119.29V303.7H122.589Z" fill="#fff"/></g></svg>