<svg xmlns="http://www.w3.org/2000/svg" xml:space="preserve" version="1.1" viewBox="0 0 5.603 6.642"><path d="M1.339 6.306h-.215a12.013 12.013 0 0 0-.063-1.024H1.06L.732 6.306H.568L.243 5.282H.24C.216 5.589.2 5.93.194 6.306H0c.013-.457.045-.885.095-1.285h.267l.31.944h.002l.312-.944h.255c.056.469.089.897.1 1.285m.932-.948c-.088.475-.203.82-.347 1.036-.112.166-.234.249-.367.249a.361.361 0 0 1-.131-.032v-.115a.632.632 0 0 0 .089.006.216.216 0 0 0 .15-.051.188.188 0 0 0 .069-.141.937.937 0 0 0-.053-.219l-.236-.733h.21l.17.548a.74.74 0 0 1 .048.261c.092-.247.157-.517.194-.809h.204z" fill="#5d87a1"/><path d="M5.134 6.306h-.611V5.021h.205v1.127h.406zm-.771.031-.236-.116a.439.439 0 0 0 .059-.058c.1-.118.15-.292.15-.523 0-.425-.166-.638-.5-.638a.474.474 0 0 0-.383.162c-.1.118-.15.292-.15.522 0 .225.044.391.133.496.081.095.204.143.368.143a.592.592 0 0 0 .168-.023l.307.18zm-.765-.288c-.052-.084-.078-.218-.078-.403 0-.324.098-.486.295-.486.103 0 .178.039.226.116.052.084.078.217.078.4 0 .326-.098.49-.295.49-.102 0-.178-.04-.226-.117m-.385-.099a.34.34 0 0 1-.12.268.472.472 0 0 1-.32.105.644.644 0 0 1-.366-.12l.055-.11c.101.05.193.076.276.076a.29.29 0 0 0 .182-.051.175.175 0 0 0 .07-.143c0-.076-.054-.142-.151-.196l-.27-.153c-.098-.071-.147-.148-.147-.273a.32.32 0 0 1 .11-.253.412.412 0 0 1 .282-.096c.12 0 .228.032.325.095l-.05.11a.629.629 0 0 0-.246-.052c-.066 0-.117.015-.152.047a.16.16 0 0 0-.058.122c0 .076.054.142.155.198l.275.154c.1.071.15.147.15.272" fill="#f8981d"/><path d="M4.894 3.945c-.283-.007-.502.021-.686.1-.053.02-.137.02-.145.087.029.029.032.075.057.114.042.07.116.165.184.215.074.057.148.113.226.162.138.085.293.135.427.22.078.049.156.113.234.166.038.028.063.074.113.091v-.01c-.025-.032-.032-.078-.057-.113l-.106-.103a1.682 1.682 0 0 0-.367-.356c-.113-.078-.36-.184-.407-.315l-.007-.007c.078-.007.17-.035.244-.057.12-.032.23-.024.353-.056.057-.014.113-.032.17-.05v-.031c-.064-.064-.11-.149-.177-.209a4.708 4.708 0 0 0-.583-.434c-.11-.071-.25-.117-.367-.177-.042-.021-.113-.032-.138-.067-.063-.078-.1-.18-.145-.272a8.838 8.838 0 0 1-.29-.615c-.063-.138-.102-.275-.18-.403-.364-.6-.76-.964-1.367-1.321C1.75.43 1.594.398 1.428.359L1.163.345C1.106.32 1.05.253 1 .221.8.094.28-.18.131.182c-.095.23.142.456.223.573.06.08.138.173.18.265.025.06.032.124.057.187.056.156.109.329.183.474.039.074.081.151.13.218.03.04.079.057.09.12-.05.071-.054.177-.082.266-.127.399-.078.893.103 1.187.056.088.19.282.37.208.16-.064.124-.265.17-.442.01-.042.004-.07.025-.098v.007c.05.098.099.194.145.293.11.173.3.353.46.473.084.064.15.173.257.212v-.01h-.007c-.022-.032-.053-.046-.081-.07a1.715 1.715 0 0 1-.184-.213 4.55 4.55 0 0 1-.396-.643 4.59 4.59 0 0 1-.151-.34c-.022-.041-.022-.105-.057-.126-.053.077-.13.144-.17.24-.067.152-.074.339-.099.534l-.014.006c-.112-.028-.151-.144-.194-.243a1.53 1.53 0 0 1-.032-.944c.025-.074.131-.307.089-.377-.022-.068-.092-.107-.131-.16a1.435 1.435 0 0 1-.128-.226C.803 1.355.76 1.136.67.94.626.847.552.75.492.666.425.571.351.504.297.391.28.352.255.288.284.246.29.218.304.207.333.2.379.161.51.21.555.232c.131.053.24.102.35.176.05.036.103.103.166.12h.075c.112.025.24.008.346.04.187.06.357.148.509.243.462.294.844.71 1.102 1.209.042.08.06.155.098.24.075.173.167.35.24.52.075.165.146.335.252.473.053.074.265.113.36.151.07.032.18.06.244.1.12.073.24.158.353.24.056.042.233.13.244.201M1.29.875a.55.55 0 0 0-.145.018V.9h.007c.028.056.078.095.113.145.029.056.053.112.081.169l.007-.007c.05-.035.075-.092.075-.177-.022-.025-.025-.049-.043-.074-.02-.035-.067-.053-.095-.081" fill="#5d87a1"/><path d="M5.57 6.305h.033v-.157h-.049l-.039.107-.043-.107h-.046v.157h.03v-.12h.002l.045.12h.023l.045-.12zm-.259 0h.035v-.13h.044v-.027h-.125v.027h.046z" fill="#f8981d"/></svg>