<svg xmlns="http://www.w3.org/2000/svg" xml:space="preserve" version="1.1" viewBox="0 0 8.457 8.467"><defs><radialGradient id="a" cx="-96.862" cy="-304.418" r="203.011" fx="-96.862" fy="-304.418" gradientTransform="matrix(.2207 0 0 .22093 50.112 76.54)" gradientUnits="userSpaceOnUse"><stop offset="0%" stop-color="#20C6B7"/><stop offset="100%" stop-color="#4D9ABF"/></radialGradient></defs><path d="m56.425 79.662-.003-.002a.013.013 0 0 1-.005-.003.024.024 0 0 1-.006-.02l.17-1.044.8.8-.832.355a.018.018 0 0 1-.007.001h-.003a.02.02 0 0 1-.005-.003.379.379 0 0 0-.11-.085zm1.161-.064.856.856c.178.178.267.267.299.37.005.015.009.03.012.046l-2.045-.867a.16.16 0 0 0-.004 0c-.008-.004-.017-.008-.017-.016 0-.009.01-.013.017-.016l.003-.001zm1.132 1.546c-.044.083-.13.17-.276.315l-.965.965-1.248-.26-.007-.001c-.01-.002-.022-.004-.022-.014a.377.377 0 0 0-.145-.263c-.005-.005-.004-.013-.002-.02v-.004l.235-1.44v-.006c.002-.01.004-.023.014-.023a.382.382 0 0 0 .256-.147l.006-.006c.007-.004.016 0 .023.003l2.13.901zm-1.463 1.502-1.587 1.587.272-1.67v-.002l.002-.006c.002-.005.008-.008.013-.01h.003a.409.409 0 0 0 .153-.115c.006-.006.012-.012.02-.013a.02.02 0 0 1 .007 0l1.117.23zm-1.922 1.923-.18.179-1.977-2.858a.094.094 0 0 0-.002-.003c-.003-.005-.006-.009-.006-.014 0-.003.003-.006.005-.009l.003-.003.016-.027.004-.008h.001a.038.038 0 0 1 .011-.014c.005-.002.011 0 .017 0l2.19.452a.036.036 0 0 1 .017.007c.003.003.003.006.004.01a.388.388 0 0 0 .227.26c.006.002.004.01 0 .016a.053.053 0 0 0-.002.01l-.328 2.002zm-.374.373c-.132.13-.21.2-.297.228a.442.442 0 0 1-.267 0c-.103-.033-.192-.122-.37-.3l-1.985-1.986.518-.804a.033.033 0 0 1 .01-.01c.005-.004.013-.003.02 0a.537.537 0 0 0 .361-.019c.006-.002.012-.004.017 0a.042.042 0 0 1 .006.008l1.987 2.883zm-3.11-2.25-.456-.455.9-.383a.019.019 0 0 1 .007-.002c.007 0 .012.008.016.014a.643.643 0 0 0 .028.041l.003.004c.003.003.001.007-.002.01l-.496.772zm-.658-.656-.576-.577a3.346 3.346 0 0 1-.219-.23l1.753.364a.185.185 0 0 0 .006 0c.011.002.023.004.023.015 0 .01-.013.016-.024.02l-.005.002zm-.895-1.103a.442.442 0 0 1 .02-.11c.032-.102.12-.191.299-.37l.737-.737a480.384 480.384 0 0 0 1.022 1.477c.006.008.012.017.006.023a.613.613 0 0 0-.088.117.035.035 0 0 1-.01.014h-.01l-1.976-.414zm1.254-1.414.991-.992c.094.041.433.184.736.312.23.098.44.186.505.215.007.002.013.005.015.012.002.004.001.009 0 .013a.442.442 0 0 0 .116.403c.007.007 0 .017-.006.025l-.003.004-1.007 1.56a.03.03 0 0 1-.01.011c-.005.003-.012.002-.018 0a.502.502 0 0 0-.12-.016.658.658 0 0 0-.115.014c-.005 0-.009.001-.013-.001a.046.046 0 0 1-.01-.012zm1.192-1.192 1.284-1.284c.177-.178.266-.267.37-.3a.442.442 0 0 1 .266 0c.102.033.191.122.37.3l.277.278-.913 1.414a.034.034 0 0 1-.009.011c-.005.004-.013.002-.02 0a.463.463 0 0 0-.424.082c-.006.006-.014.002-.022 0-.12-.053-1.047-.445-1.18-.501zm2.761-.812.843.843-.203 1.258v.004a.03.03 0 0 1-.002.008c-.002.005-.006.005-.01.007a.404.404 0 0 0-.122.06.034.034 0 0 0-.004.004.01.01 0 0 1-.009.005.025.025 0 0 1-.01-.001l-1.284-.546-.002-.001c-.009-.003-.018-.007-.018-.016a.485.485 0 0 0-.069-.202c-.006-.01-.013-.02-.008-.03zm-.868 1.9 1.204.51c.007.004.014.007.017.013a.023.023 0 0 1 0 .013.302.302 0 0 0-.006.058v.034c0 .008-.01.012-.017.015l-.002.001c-.191.081-2.679 1.142-2.683 1.142-.003 0-.007 0-.011-.004-.007-.006 0-.015.006-.024a.168.168 0 0 0 .003-.004l.99-1.533.001-.002c.006-.01.013-.02.023-.02l.01.002c.023.003.043.006.063.006.15 0 .29-.073.373-.198a.035.035 0 0 1 .007-.01c.006-.004.015-.001.022.002zm-1.38 2.029 2.712-1.157s.004 0 .008.004a.367.367 0 0 0 .04.034l.006.004c.005.003.01.007.011.012v.006l-.233 1.427v.005c-.002.011-.004.024-.014.024a.382.382 0 0 0-.303.187l-.001.002c-.003.005-.006.01-.011.012-.005.003-.01.002-.016 0l-2.162-.445c-.002 0-.034-.115-.036-.115z" fill="url(#a)" transform="translate(-50.296 -76.723)"/></svg>