<svg xmlns="http://www.w3.org/2000/svg" xml:space="preserve" version="1.1" viewBox="0 0 7.514 8.467"><path d="M3.756 8.467a.682.682 0 0 1-.326-.086l-1.035-.614c-.155-.086-.078-.117-.03-.132a1.9 1.9 0 0 0 .466-.21c.023-.016.054-.008.078.008l.793.474c.031.016.07.016.093 0L6.899 6.11c.031-.015.047-.046.047-.085V2.439c0-.039-.016-.07-.047-.086L3.795.564c-.03-.015-.07-.015-.093 0L.598 2.354c-.03.015-.046.054-.046.085v3.586c0 .03.015.07.046.085l.848.49c.46.234.747-.039.747-.31V2.75c0-.047.039-.093.093-.093h.397c.047 0 .093.039.093.093v3.54c0 .614-.334.971-.917.971-.18 0-.32 0-.716-.194L.326 6.6A.656.656 0 0 1 0 6.032V2.447c0-.234.124-.451.326-.568L3.43.082a.694.694 0 0 1 .653 0l3.104 1.797a.656.656 0 0 1 .326.568v3.585a.656.656 0 0 1-.326.568L4.083 8.397a.796.796 0 0 1-.327.07zm.957-2.466c-1.361 0-1.641-.622-1.641-1.15 0-.048.039-.094.093-.094h.405c.046 0 .085.03.085.078.063.412.241.614 1.066.614.653 0 .933-.148.933-.498 0-.202-.077-.35-1.096-.45-.848-.086-1.377-.273-1.377-.95 0-.63.529-1.003 1.415-1.003.996 0 1.486.342 1.548 1.089a.126.126 0 0 1-.023.07c-.016.015-.039.03-.062.03h-.405a.091.091 0 0 1-.085-.07c-.094-.427-.335-.567-.973-.567-.715 0-.8.249-.8.436 0 .225.1.295 1.065.42.957.124 1.408.303 1.408.972-.008.684-.568 1.073-1.556 1.073z" fill="#539e43"/></svg>