<svg xmlns="http://www.w3.org/2000/svg" xml:space="preserve" version="1.1" viewBox="0 0 1200 631"><defs><clipPath id="a" clipPathUnits="userSpaceOnUse"><path d="M12 162C12 82 135 17 288 17s276 65 276 145-123 145-276 145S12 242 12 162"/></clipPath><clipPath id="c" clipPathUnits="userSpaceOnUse"><path d="M0 324h576V0H0Z"/></clipPath><clipPath id="d" clipPathUnits="userSpaceOnUse"><path d="M0 324h576V0H0Z"/></clipPath><radialGradient id="b" cx="0" cy="0" r="1" fx="0" fy="0" gradientTransform="matrix(363.05789 0 0 -363.05789 178 256)" gradientUnits="userSpaceOnUse" spreadMethod="pad"><stop offset="0" stop-color="#aeb2d5" stop-opacity="1"/><stop offset="0" stop-color="#aeb2d5" stop-opacity="1"/><stop offset="1" stop-color="#484c89" stop-opacity="1"/><stop offset="1" stop-color="#484c89" stop-opacity="1"/></radialGradient></defs><g clip-path="url(#a)" transform="matrix(2.17014 0 0 -2.17014 -25 667)"><path d="M12 162C12 82 135 17 288 17s276 65 276 145-123 145-276 145S12 242 12 162" fill="url(#b)"/></g><g clip-path="url(#c)" transform="matrix(2.17014 0 0 -2.17014 -25 667)"><path d="M288 27c147 0 266 60 266 135 0 74-119 134-266 134S22 236 22 162C22 87 141 27 288 27" fill="#777bb3" fill-opacity="1" fill-rule="nonzero"/></g><g fill-opacity="1" fill-rule="nonzero" clip-path="url(#d)" transform="matrix(2.17014 0 0 -2.17014 -25 667)"><path d="M162 145c12 0 21 2 27 7 5 4 9 11 11 22 2 10 2 17-2 20-3 4-11 6-22 6h-19l-11-55ZM99 77a3 3 0 0 0-3 4l28 146 3 2h61c20 0 34-5 43-15 9-11 12-25 8-43a69 69 0 0 0-21-38c-6-6-14-10-22-13s-18-4-31-4h-24l-7-36-3-3z" fill="#000"/><path d="M159 197h17c13 0 18-3 19-5 3-3 4-9 2-17-2-10-6-17-11-21s-13-6-24-6h-13Zm29 35h-61c-3 0-6-2-6-5L93 81a6 6 0 0 1 5-7h32c3 0 6 2 6 5l7 34h22c13 0 23 1 31 4 9 3 17 8 24 14a71 71 0 0 1 22 39c3 19 0 34-9 45-10 11-25 17-45 17m-46-90h20c12 0 22 2 28 7s11 13 13 24 1 19-3 23c-4 5-12 7-24 7h-22l-12-61m46 84c18 0 32-5 40-14 8-10 11-24 8-41a65 65 0 0 0-20-36c-7-5-14-10-21-12-8-3-18-4-30-4h-27l-8-39H98l29 146h61" fill="#fff"/><path d="M312 116a3 3 0 0 0-3 4l13 64c1 6 0 11-1 12-1 2-4 4-14 4h-23l-15-82-3-2h-32a3 3 0 0 0-3 4l29 145c0 2 1 3 3 3h31a3 3 0 0 0 3-4l-7-35h25c18 0 31-3 38-10 8-7 10-18 7-33l-13-68-3-2Z" fill="#000"/><path d="M294 271h-31c-3 0-6-2-6-5l-29-146a6 6 0 0 1 6-7h32c3 0 5 2 6 5l15 79h20c9 0 11-2 11-2 1-1 2-4 1-10l-13-65a6 6 0 0 1 6-7h32c3 0 5 2 6 5l13 68c3 16 0 28-8 35-8 8-21 11-40 11h-21l6 32a6 6 0 0 1-6 7m0-6-8-39h29c17 0 29-3 36-9s9-16 6-30l-13-68h-32l12 65c2 7 1 12-1 15-3 2-8 4-16 4h-25l-16-84h-32l29 146h31" fill="#fff"/><path d="M410 145c12 0 21 2 27 7 5 4 9 11 11 22 2 10 2 17-2 20-3 4-11 6-22 6h-19l-11-55Zm-63-68a3 3 0 0 0-3 4l28 146 3 2h61c20 0 34-5 43-15 9-11 12-25 8-43a69 69 0 0 0-21-38c-6-6-14-10-22-13s-18-4-31-4h-24l-7-36-3-3z" fill="#000"/><path d="M407 197h17c13 0 18-3 19-5 3-3 4-9 2-17-2-10-6-17-11-21s-13-6-24-6h-13Zm29 35h-61c-3 0-6-2-6-5L341 81a6 6 0 0 1 5-7h32c3 0 6 2 6 5l7 34h22c13 0 23 1 31 4 9 3 17 8 24 14a71 71 0 0 1 22 39c3 19 0 34-9 45-10 11-25 17-45 17m-46-90h20c12 0 22 2 28 7s11 13 13 24 1 19-3 23c-4 5-12 7-24 7h-22l-12-61m46 84c18 0 32-5 40-14 8-10 11-24 8-41a65 65 0 0 0-20-36c-7-5-14-10-21-12-8-3-18-4-30-4h-27l-8-39h-32l29 146h61" fill="#fff"/></g></svg>