<svg xmlns="http://www.w3.org/2000/svg" xml:space="preserve" version="1.1" viewBox="0 0 32 32.945"><g fill="none" fill-rule="nonzero" stroke="#fff" stroke-linecap="round" stroke-linejoin="round" stroke-miterlimit="4" stroke-width="12.465" clip-rule="nonzero"><path d="M23.92 23.996c.21-1.747.147-2.003 1.448-1.72l.33.03c1.001.045 2.31-.162 3.078-.519 1.655-.768 2.637-2.05 1.005-1.713-3.723.768-3.979-.493-3.979-.493 3.931-5.832 5.574-13.235 4.156-15.048C26.09-.41 19.393 1.928 19.281 1.99l-.035.006a13.27 13.27 0 0 0-2.484-.259c-1.684-.027-2.963.442-3.932 1.177 0 0-11.946-4.921-11.39 6.19.118 2.363 3.388 17.885 7.288 13.197 1.425-1.715 2.802-3.164 2.802-3.164a3.616 3.616 0 0 0 2.362.603l.067-.057c-.021.213-.012.421.026.668-1.004 1.122-.71 1.32-2.718 1.733-2.032.418-.838 1.164-.059 1.359.945.236 3.131.571 4.609-1.497l-.06.236c.395.315.368 2.266.424 3.66.056 1.394.15 2.695.434 3.462.284.766.619 2.742 3.259 2.176 2.206-.473 3.893-1.153 4.046-7.483" fill="#000" stroke="#000" stroke-linecap="butt" stroke-linejoin="miter" stroke-width="2.768"/><path d="M29.781 20.074c-3.723.768-3.979-.493-3.979-.493 3.931-5.832 5.574-13.236 4.156-15.048C26.09-.41 19.393 1.928 19.282 1.989l-.036.006a13.276 13.276 0 0 0-2.484-.259c-1.685-.027-2.963.442-3.932 1.177 0 0-11.946-4.921-11.39 6.19.118 2.363 3.387 17.885 7.287 13.197 1.426-1.715 2.803-3.164 2.803-3.164a3.615 3.615 0 0 0 2.361.603l.067-.057a2.64 2.64 0 0 0 .027.668c-1.005 1.122-.71 1.32-2.718 1.733-2.032.418-.838 1.164-.059 1.359.945.236 3.131.571 4.608-1.497l-.059.236c.394.315.67 2.051.624 3.624-.046 1.574-.077 2.654.233 3.498.31.843.62 2.742 3.26 2.176 2.206-.473 3.35-1.698 3.508-3.742.113-1.453.368-1.238.385-2.537l.204-.615c.237-1.97.038-2.605 1.397-2.309l.33.029c1 .046 2.31-.16 3.079-.518 1.654-.768 2.636-2.05 1.004-1.713z" fill="#336791" stroke="none"/><path d="M15.976 21.203c-.102 3.664.026 7.355.385 8.251.358.897 1.126 2.642 3.767 2.076 2.206-.473 3.008-1.388 3.357-3.408.256-1.486.75-5.614.814-6.46M12.811 2.832S.857-2.056 1.413 9.055c.118 2.364 3.388 17.886 7.288 13.197a64.737 64.737 0 0 1 2.714-3.059M19.268 1.94c-.413.13 6.65-2.583 10.664 2.547 1.418 1.812-.225 9.215-4.156 15.048" stroke-width=".923"/><path d="M25.776 19.535s.256 1.261 3.98.493c1.63-.337.649.945-1.005 1.713-1.358.63-4.402.792-4.452-.079-.128-2.246 1.602-1.564 1.477-2.127-.112-.507-.886-1.004-1.398-2.245-.447-1.083-6.128-9.388 1.576-8.155.282-.058-2.01-7.327-9.219-7.445-7.207-.118-6.97 8.863-6.97 8.863" stroke-linejoin="bevel" stroke-width=".923"/><path d="M13.959 20.303c-1.005 1.123-.71 1.32-2.718 1.734-2.033.418-.839 1.164-.06 1.359.946.236 3.132.571 4.609-1.497.45-.63-.003-1.635-.62-1.891-.3-.124-.698-.279-1.211.295z" stroke-width=".923"/><path d="M13.893 20.284c-.101-.66.217-1.445.558-2.364.512-1.379 1.694-2.757.748-7.13-.705-3.259-5.432-.678-5.435-.237-.003.442.214 2.24-.079 4.334-.382 2.732 1.739 5.042 4.18 4.806" stroke-width=".923"/><path d="M12.768 10.487c-.021.151.276.554.664.608.388.054.72-.261.74-.412.021-.15-.276-.317-.664-.371-.388-.054-.72.025-.74.175z" fill="#fff" stroke-linecap="butt" stroke-linejoin="miter" stroke-width=".308"/><path d="M24.567 10.18c.021.15-.276.553-.664.607-.388.054-.72-.26-.74-.411-.021-.151.276-.318.664-.372.387-.054.719.025.74.176z" fill="#fff" stroke-linecap="butt" stroke-linejoin="miter" stroke-width=".154"/><path d="M25.954 9.135c.063 1.184-.255 1.99-.296 3.25-.06 1.832.874 3.928-.532 6.027" stroke-width=".923"/></g></svg>