<svg xmlns="http://www.w3.org/2000/svg" xml:space="preserve" version="1.1" viewBox="0 0 32000 19639"><path d="M988 19640s423-4177 3385-9116c2962-4939 8014-8676 12120-9044C24660 661 32000 7984 32000 7984s-240 170-496 382c-8013-5925-12908-3133-14448-2385-7054 3937-4925 13658-4925 13658H990ZM24210 2270a23441 23441 0 00-1370-506l57-933c888 255 1240 424 1367 494l-56 946zm-1342 2993a9780 9780 0 01 1397 184l-56 874a7850 7850 0 00-1397-170l56-888zM17650 860c-408 0-817 15-1227 58l-268-833C16620 28 17070 0 17508 0l283 860h-140Zm678 5194c351-155 763-310 1241-452l310 933a8690 8690 0 00-1228 492l-324-973zm-6405-3712c-367 186-720 398-1086 623l-650-988c382-225 748-420 1100-606l636 972zm2892 6351a7894 7894 0 01 872-944l636 960c-310 324-592 650-832 1003l-676-1020zm-2046 4544c113-507 240-1030 424-1550l1015 803c-140 550-240 1100-296 1650l-1144-903zm-6178-6700c-340 350-664 730-960 1112l-1087-930c324-354 677-707 1044-1060l1003 874zM2328 12840l-704 1693L0 13940c140-380 436-1088 704-1696l1623 594zm10230 3980 1523 550c85 665 211 1284 338 1835l-1693-606a14404 14404 0 01-168-1778Z" fill="#c00" fill-rule="nonzero"/></svg>
