<svg xmlns="http://www.w3.org/2000/svg" xml:space="preserve" version="1.1" viewBox="0 0 8.467 7.229"><path d="M8.134 5.568c-.452.235-2.792 1.198-3.29 1.458-.499.26-.775.257-1.169.069C3.281 6.906.791 5.9.342 5.685.118 5.58 0 5.489 0 5.404v-.856s3.243-.706 3.766-.894c.523-.187.705-.194 1.15-.031.446.163 3.11.644 3.55.805v.844c0 .084-.102.177-.332.297" fill="#912626"/><path d="M8.134 4.717c-.452.236-2.792 1.198-3.29 1.458-.499.26-.775.257-1.169.069S.791 5.05.342 4.835c-.448-.214-.458-.362-.017-.534a277.44 277.44 0 0 1 3.441-1.333c.523-.187.705-.194 1.15-.03.446.162 2.772 1.088 3.213 1.25.44.16.457.294.005.53" fill="#c6302b"/><path d="M8.134 4.183c-.452.236-2.792 1.198-3.29 1.458-.499.26-.775.257-1.169.069S.791 4.516.342 4.301C.118 4.194 0 4.104 0 4.018v-.855s3.243-.706 3.766-.894c.523-.188.705-.195 1.15-.032.446.164 3.11.644 3.55.805v.844c0 .085-.102.177-.332.297" fill="#912626"/><path d="M8.134 3.333c-.452.235-2.792 1.197-3.29 1.457-.499.26-.775.257-1.169.07C3.281 4.67.791 3.664.342 3.45c-.448-.214-.458-.361-.017-.534.44-.172 2.918-1.144 3.441-1.332.523-.188.705-.195 1.15-.031.446.163 2.772 1.089 3.213 1.25.44.161.457.294.005.53" fill="#c6302b"/><path d="M8.134 2.747c-.452.236-2.792 1.198-3.29 1.458-.499.26-.775.257-1.169.07C3.281 4.085.791 3.08.342 2.864.118 2.758 0 2.668 0 2.582v-.855S3.243 1.02 3.766.833c.523-.188.705-.195 1.15-.031.446.163 3.11.643 3.55.805v.843c0 .085-.102.178-.332.297" fill="#912626"/><path d="M8.134 1.897c-.452.235-2.792 1.198-3.29 1.457-.499.26-.775.257-1.169.07C3.281 3.234.791 2.228.342 2.013-.106 1.8-.116 1.654.325 1.48.765 1.308 3.243.336 3.766.148c.523-.188.705-.195 1.15-.031.446.163 2.772 1.089 3.213 1.25.44.161.457.294.005.53" fill="#c6302b"/><path d="m5.267 1.064-.727.076-.163.392-.263-.438-.841-.075L3.9.793 3.712.446l.587.23.554-.182-.15.359.564.211m-.934 1.902-1.358-.563 1.946-.299-.588.862M2.45 1.282c.574 0 1.04.18 1.04.403 0 .223-.466.404-1.04.404s-1.04-.18-1.04-.404c0-.222.465-.403 1.04-.403" fill="#fff"/><path d="m6.128 1.171 1.152.456-1.151.455-.001-.91" fill="#621b1c"/><path d="m4.853 1.676 1.275-.505v.91l-.124.05-1.15-.455" fill="#9a2928"/></svg>