<svg xmlns="http://www.w3.org/2000/svg" xml:space="preserve" version="1.1" viewBox="0 0 8.467 8.467"><path d="m.675 5.25.704.194a3.108 3.108 0 0 1 2.858-4.316h.057l.417-.567-.338-.56h-.136a4.24 4.24 0 0 0-3.95 5.773Z" fill="#5ecae6"/><path d="m4.955.597-.431.553a3.105 3.105 0 0 1 2.808 3.088 3.067 3.067 0 0 1-.18 1.034l.338.653.646-.05a4.272 4.272 0 0 0 .33-1.637A4.229 4.229 0 0 0 4.61.022Z" fill="#a5ddef"/><path d="m7.36 6.126-.302-.617a3.102 3.102 0 0 1-5.572.165l-.747-.187-.366.496a4.235 4.235 0 0 0 7.67.093z" fill="#7fd2ed"/><path d="M3.073 2.4 1.94 3.561l.287.582L4.2 6.557l1.975-2.47.287-.525L5.328 2.4z" fill="#ef4561"/><path d="m6.463 3.598-.287.496-.704.208.28-.56z" fill="#ef4d6e"/><path d="M4.48 4.41h-.56l-.287-.718h1.135zm.992-.144h-.424l-.28-.574h.984z" fill="#ef4561"/><path d="m3.633 3.742.288.704-.568-.144zm1.135 0 .28.56-.567.144z" fill="#ef4d6e"/><path d="m6.463 3.541-.711.165-.56-1.307h.136z" fill="#ef4561"/><path d="M5.752 3.692h-.984l.137-1.293h.287zm-3.813-.094.287.568.704.136-.28-.56z" fill="#ef4d6e"/><path d="M2.93 4.266h.423l.28-.574H2.65z" fill="#ef4561"/><path d="m1.939 3.541.71.165.56-1.307h-.136z" fill="#ef4561"/><path d="M2.65 3.692h.983l-.136-1.293H3.21z" fill="#ef4d6e"/><path d="M4.2 2.4h-.703l.136 1.27zm.705 0H4.2l.567 1.27z" fill="#ef4561"/><path d="m4.2 2.42-.567 1.272h1.135zm0 4.101-.847-2.255H2.93z" fill="#ef4d6e"/><path d="M2.93 4.302 4.2 6.565l-1.974-2.4zm.99.144.28 2.119-.847-2.263zm.28 2.119.28-2.119.568-.144z" fill="#ef4561"/><path d="m4.2 6.521.848-2.255h.424z" fill="#ef4d6e"/><path d="M5.472 4.302 4.2 6.565l1.975-2.47z" fill="#ef4561"/><path d="M3.92 4.41h.56L4.2 6.53z" fill="#ef4d6e"/></svg>