<svg xmlns="http://www.w3.org/2000/svg" xml:space="preserve" version="1.1" viewBox="0 0 32.052 32"><g transform="translate(-7.47 -6.271) scale(.09222)"><rect fill="#fff" width="120.945" height="120.945" x="212.08" y="175.67" rx="3.543%"/><path d="m407.7 397.3 20.86-257.7L348.02 297l-196 118c80.86-5.675 171.2-11.87 255.7-17.66z" fill="#a00403"/><path d="M423.39 178.977 320 98l-27 93c109.797 9.317 91.763-9.646 130.39-12.023zM192 282l136 43-35-134Zm-89 19c44 139 55 169 89-19l-90 21zM276 68l97 1-53 29c-11-7-36-24-44-30ZM85 246l-4 99 23-43ZM298 85c26 26-1 89-53 140s-118 83-144 57c-25-25.89.7-90 52.85-141s119.2-82 144.2-56Z" fill="#b11205"/><path d="m192 282 133 43c-48 45-137.5 86.5-173 90z" fill="#9f0d02"/><path d="m293 191 33 133c40-42 76-88 94-144zm114.7 206.3L387.02 245 326 324Z" fill="#891102"/><path d="M421 181c13-41 16-101-48-112l-53 29z" fill="#aa1401"/><path d="M81 345c2 68 50 69 71 70l-49-113Z" fill="#9e1209"/><path d="m192 282 54 103c32-17 57-38 79-61z" fill="#900e04"/><path d="m103 302-8 91c14 20 34 21 55 20-15-37-45-112-47-111z" fill="#8b1104"/></g></svg>