<svg xmlns="http://www.w3.org/2000/svg" xml:space="preserve" version="1.1" viewBox="0 0 8.08 8.467"><path d="M7.39 0a.054.054 0 0 1 .048.085L5.346 2.927a.08.08 0 0 1-.121 0l-.738-.822a.086.086 0 0 0-.133.012l-.447.569a.094.094 0 0 0 .012.096l1.33 1.38a.08.08 0 0 0 .121 0l2.613-2.94a.056.056 0 0 1 .096.036v7.148a.057.057 0 0 1-.06.061H.06a.057.057 0 0 1-.06-.06V.061a.057.057 0 0 1 .06-.06zM5.334 4.826a1.321 1.321 0 0 0-1.343 1.355c0 .835.605 1.367 1.39 1.367.365.009.722-.102 1.017-.315a.075.075 0 0 0 .012-.097l-.218-.326a.073.073 0 0 0-.097-.012 1.18 1.18 0 0 1-.64.205c-.424 0-.69-.266-.738-.58 0-.013.01-.023.024-.024h1.826a.078.078 0 0 0 .073-.073v-.073c0-.846-.532-1.427-1.306-1.427zm-1.803-.46a1.936 1.936 0 0 0-1.306-.435c-.822 0-1.33.484-1.33 1.065 0 1.318 2.007.895 2.007 1.512 0 .193-.193.387-.604.387a1.52 1.52 0 0 1-1.053-.412.08.08 0 0 0-.12.012l-.315.436a.075.075 0 0 0 .012.097c.327.302.786.508 1.427.508.944 0 1.403-.484 1.428-1.113 0-1.306-2.008-.931-2.008-1.488 0-.205.181-.35.496-.35a1.5 1.5 0 0 1 .955.326.077.077 0 0 0 .11-.012l.314-.423a.077.077 0 0 0-.013-.11zm1.815.993a.61.61 0 0 1 .64.556.026.026 0 0 1-.024.024H4.729a.026.026 0 0 1-.024-.024.636.636 0 0 1 .64-.556z" fill="#2cb134"/></svg>