<svg xmlns="http://www.w3.org/2000/svg" xmlns:xlink="http://www.w3.org/1999/xlink" xml:space="preserve" version="1.1" viewBox="0 0 28612 32000"><defs><linearGradient id="a" x1="0" x2="1000" y1="0" y2="0" gradientTransform="matrix(0-91.8907-91.8907 0 85880 161434)" gradientUnits="userSpaceOnUse" spreadMethod="pad"><stop offset="0" stop-color="#97d9f6" stop-opacity="1"/><stop offset=".92" stop-color="#0f80cc" stop-opacity="1"/><stop offset="1" stop-color="#0f80cc" stop-opacity="1"/></linearGradient><linearGradient xlink:href="#a" id="b" x1="-15615" x2="-6741" y1="-9108" y2="-9108" gradientTransform="matrix(0-9.18907-9.18907 0 8588 16143)" gradientUnits="userSpaceOnUse" spreadMethod="pad"/></defs><g fill-opacity="1" fill-rule="nonzero"><path d="m15597 24795-23-300s-552-3722-1210-4833c-103-176 12-900 302-1970 170 293 886 1547 1030 1952 161 457 196 588 196 588s-393-2020-1038-3200a43400 43400 0 01 501-1567c244 428 829 1465 957 1825l68 194 19-103c-148-626-437-1716-834-2520 880-4583 3882-10707 6960-13440H2447A2454 2454 0 00 0 3870v22143c0 1345 1100 2447 2447 2447H15670a29884 29884 0 01-74-3663" fill="#0f80cc"/><path d="M99406 99760c672-1162 3510-6136 4080-7739 643-1812 778-2331 778-2331s-1557 8011-4112 12686c560 1890 1230 3979 1986 6212 885-1553 2896-5120 3623-6810l82 954c-644 2475-1622 5715-2874 8254 3210 16725 13554 38625 24700 50448H50960a6879 6879 0 01-6870-6871V73179c17373 6668 38322 12763 56352 12502-670 2581-1430 4915-2232 6268-412 698 45 3565 1196 7812" fill="url(#b)" transform="matrix(.25223 0 0-.25223-10407 42854)"/><path d="M27209 697c-1375-1226-3040-734-4684 725a11614 11614 0 00-730 714c-2810 2982-5420 8505-6230 12724 316 640 562 1458 725 2082a16330 16330 0 01 220 938c-1 0-27-96-130-396l-68-194a2251 2251 0 00-43-107c-187-427-695-1326-918-1718a42904 42904 0 00-500 1567c644 1179 1037 3200 1037 3200s-34-131-195-588c-144-405-860-1660-1030-1953-290 1072-405 1795-301 1970 200 346 394 935 562 1586 382 1466 647 3252 647 3252l23 300a29880 29880 0 00 74 3663c126 1528 364 2840 667 3543l206-112c-445-1384-626-3198-547-5290 120-3197 856-7053 2216-11070 2296-6068 5483-10936 8400-13260-2660 2401-6256 10172-7333 13050-1205 3222-2060 6246-2575 9143 890-2716 3762-3883 3762-3883s1410-1738 3056-4220c-987 224-2607 610-3150 837-800 336-1015 450-1015 450s2593-1579 4817-2293c3060-4818 6390-11662 3035-14656" fill="#003b57"/></g></svg>
