<svg xmlns="http://www.w3.org/2000/svg" xml:space="preserve" version="1.1" viewBox="0 0 8.467 8.467"><path d="M7.276 4.737v.004h1.19v1.492H6.724c-.137 0-.346-.058-.463-.127l-.418-.246a.464.464 0 0 0-.429 0l-.543.318c-.117.067-.117.181 0 .25l1.14.67c.118.07.327.126.464.126h1.992v.994a.25.25 0 0 1-.249.249H.25A.25.25 0 0 1 0 8.218v-.994h1.993c.162-.007.32-.05.463-.127l3.805-2.234a1.07 1.07 0 0 1 .463-.127zm0-2.44h1.19v1.505H6.474c-.162.007-.32.051-.463.128L2.206 6.187c-.143.077-.301.12-.463.128H0V4.809h1.992c.162-.007.32-.051.463-.128L6.26 2.424c.143-.077.3-.12.463-.128zM8.217 0a.25.25 0 0 1 .25.244v.996H6.474c-.162.007-.32.05-.463.127L2.206 3.605a1.07 1.07 0 0 1-.463.127H0V2.237h1.743c.137 0 .346.057.463.127l.418.246c.117.07.311.07.428 0l.543-.318c.117-.067.117-.182 0-.252l-1.14-.669a1.074 1.074 0 0 0-.463-.127H0V.248a.25.25 0 0 1 .249-.249z" fill="#000" fill-rule="nonzero"/></svg>