<svg xmlns="http://www.w3.org/2000/svg" xml:space="preserve" version="1.1" viewBox="0 0 7.045 8.467"><path d="M6.596 1.12C5.81-.005 4.257-.339 3.134.377L1.163 1.633A2.262 2.262 0 0 0 .14 3.15a2.382 2.382 0 0 0 .235 1.53 2.268 2.268 0 0 0-.339.844A2.41 2.41 0 0 0 .45 7.346c.786 1.126 2.34 1.46 3.462.744l1.971-1.257a2.262 2.262 0 0 0 1.022-1.515 2.383 2.383 0 0 0-.234-1.53 2.268 2.268 0 0 0 .338-.845 2.41 2.41 0 0 0-.412-1.823" fill="#ff3e00"/><path d="M2.942 7.454A1.567 1.567 0 0 1 1.26 6.83a1.45 1.45 0 0 1-.248-1.096 1.375 1.375 0 0 1 .047-.185l.038-.113.1.074a2.544 2.544 0 0 0 .772.386l.073.022-.006.073a.442.442 0 0 0 .08.294.472.472 0 0 0 .506.187.434.434 0 0 0 .12-.053l1.973-1.257a.41.41 0 0 0 .185-.274.438.438 0 0 0-.074-.33.472.472 0 0 0-.507-.189.434.434 0 0 0-.12.053l-.753.48a1.44 1.44 0 0 1-.4.176 1.567 1.567 0 0 1-1.682-.623 1.45 1.45 0 0 1-.248-1.097 1.36 1.36 0 0 1 .615-.911L3.703 1.19a1.437 1.437 0 0 1 .4-.176 1.567 1.567 0 0 1 1.682.623 1.45 1.45 0 0 1 .248 1.097 1.391 1.391 0 0 1-.047.184l-.037.113-.101-.074a2.542 2.542 0 0 0-.772-.386l-.073-.022.006-.073a.443.443 0 0 0-.08-.293.472.472 0 0 0-.505-.188.434.434 0 0 0-.122.053L2.33 3.305a.41.41 0 0 0-.185.274.438.438 0 0 0 .074.331.472.472 0 0 0 .507.188.436.436 0 0 0 .121-.053l.753-.48A1.435 1.435 0 0 1 4 3.39a1.567 1.567 0 0 1 1.682.623 1.45 1.45 0 0 1 .247 1.097 1.36 1.36 0 0 1-.614.912L3.342 7.277a1.437 1.437 0 0 1-.4.177" fill="#fff"/></svg>