<svg xmlns="http://www.w3.org/2000/svg" xml:space="preserve" version="1.1" viewBox="0 0 8.467 8.467"><g fill="#000"><path d="M8.208 0H.26A.26.26 0 0 0 0 .26v1.09h4.233a2.884 2.884 0 0 1 2.4 4.482H8.46V.26A.259.259 0 0 0 8.208 0ZM1.35 4.233a2.876 2.876 0 0 1 .484-1.599H0v5.574a.259.259 0 0 0 .26.259h7.948a.259.259 0 0 0 .259-.259V7.116H4.233A2.883 2.883 0 0 1 1.35 4.233Z"/><path d="M6.33 4.16a3.25 3.25 0 0 1-.806.196 1.405 1.405 0 0 0-.008-.325 3.437 3.437 0 0 0 .693-.816.311.311 0 0 0-.526-.333 3.091 3.091 0 0 1-.428.546 1.274 1.274 0 0 0-.267-.254 2.563 2.563 0 0 0-.044-.545 4.386 4.386 0 0 0-.198-.71.31.31 0 0 0-.399-.185.296.296 0 0 0-.114.071.313.313 0 0 0-.073.328 4.613 4.613 0 0 1 .15.496 2.654 2.654 0 0 1 .046.322 1.211 1.211 0 0 0-.324.008 3.445 3.445 0 0 0-.817-.694.312.312 0 0 0-.333.527 3.1 3.1 0 0 1 .548.421 1.314 1.314 0 0 0-.256.267 3.35 3.35 0 0 0-1.255.243.311.311 0 0 0 .214.585 3.27 3.27 0 0 1 .818-.201c0 .042-.008.084-.008.126a1.297 1.297 0 0 0 .016.197 3.409 3.409 0 0 0-.694.816.31.31 0 0 0 .263.478.31.31 0 0 0 .264-.14 3.035 3.035 0 0 1 .421-.547 1.395 1.395 0 0 0 .267.256 2.476 2.476 0 0 0 .045.543 4.246 4.246 0 0 0 .198.71.31.31 0 0 0 .291.198.316.316 0 0 0 .107-.018.325.325 0 0 0 .112-.073.31.31 0 0 0 .073-.326c-.026-.076-.052-.14-.073-.217-.03-.1-.056-.192-.076-.28a2.33 2.33 0 0 1-.05-.308h.126a1.315 1.315 0 0 0 .198-.014 3.427 3.427 0 0 0 .815.692.311.311 0 1 0 .333-.525 3.139 3.139 0 0 1-.546-.429 1.318 1.318 0 0 0 .255-.267h.072a3.513 3.513 0 0 0 1.182-.243.312.312 0 0 0-.212-.586zm-1.405.073v.056a.688.688 0 0 1-.245.477.634.634 0 0 1-.086.062.703.703 0 0 1-.364.102h-.056a.688.688 0 0 1-.475-.243.813.813 0 0 1-.063-.087.703.703 0 0 1-.102-.364V4.18a.659.659 0 0 1 .016-.105.703.703 0 0 1 .227-.37.984.984 0 0 1 .087-.063.703.703 0 0 1 .364-.103h.056a.676.676 0 0 1 .107.017.703.703 0 0 1 .37.228.634.634 0 0 1 .061.085.703.703 0 0 1 .108.364z"/></g></svg>