<svg xmlns="http://www.w3.org/2000/svg" version="1.1" viewBox="0 0 28.854 32"><path d="M27.966 24.663 14.996 32v-5.713l8.08-4.446zm.888-.803V8.52l-4.744 2.742v9.862zm-27.966.803L13.856 32v-5.713L5.77 21.84ZM0 23.86V8.52l4.744 2.742v9.862zM.556 7.524 13.856 0v5.522l-8.59 4.728zm27.74 0L14.996 0v5.522l8.59 4.723z" fill="#8ed6fb"/><path d="M13.856 25.237 5.882 20.85v-8.684l7.974 4.604zm1.14 0 7.975-4.383v-8.69l-7.975 4.606zm-.57-8.8zm-8.004-5.275 8.004-4.4 8.004 4.4-8.004 4.62z" fill="#1c78c0"/></svg>